<svg xmlns="http://www.w3.org/2000/svg" xmlns:xlink="http://www.w3.org/1999/xlink" width="507" zoomAndPan="magnify" viewBox="0 0 380.25 40.499999" height="54" preserveAspectRatio="xMidYMid meet" version="1.0"><defs><clipPath id="f011b2498e"><path d="M 1.949219 0 L 377.5625 0 L 377.5625 40.007812 L 1.949219 40.007812 Z M 1.949219 0 " clip-rule="nonzero"/></clipPath><clipPath id="338209dad0"><path d="M 21.953125 0 L 357.558594 0 C 362.863281 0 367.949219 2.109375 371.703125 5.859375 C 375.453125 9.609375 377.5625 14.699219 377.5625 20.003906 C 377.5625 25.308594 375.453125 30.394531 371.703125 34.148438 C 367.949219 37.898438 362.863281 40.007812 357.558594 40.007812 L 21.953125 40.007812 C 16.644531 40.007812 11.558594 37.898438 7.808594 34.148438 C 4.054688 30.394531 1.949219 25.308594 1.949219 20.003906 C 1.949219 14.699219 4.054688 9.609375 7.808594 5.859375 C 11.558594 2.109375 16.644531 0 21.953125 0 " clip-rule="nonzero"/></clipPath></defs><g clip-path="url(#f011b2498e)"><g clip-path="url(#338209dad0)"><path fill="#ecc643" d="M 1.949219 0 L 378.601562 0 L 378.601562 40.355469 L 1.949219 40.355469 Z M 1.949219 0 " fill-opacity="1" fill-rule="nonzero"/></g></g></svg>