<svg xmlns="http://www.w3.org/2000/svg" xmlns:xlink="http://www.w3.org/1999/xlink" width="633" zoomAndPan="magnify" viewBox="0 0 474.75 50.999998" height="68" preserveAspectRatio="xMidYMid meet" version="1.0"><defs><filter x="0%" y="0%" width="100%" height="100%" id="71ce51516e"><feColorMatrix values="0 0 0 0 1 0 0 0 0 1 0 0 0 0 1 0 0 0 1 0" color-interpolation-filters="sRGB"/></filter><clipPath id="313dde381c"><path d="M 0 0.0117188 L 474.5 0.0117188 L 474.5 50.984375 L 0 50.984375 Z M 0 0.0117188 " clip-rule="nonzero"/></clipPath><mask id="d100423514"><g filter="url(#71ce51516e)"><rect x="-47.475" width="569.7" fill="#000000" y="-5.1" height="61.199998" fill-opacity="0.498"/></g></mask><clipPath id="17199ce347"><path d="M 0 0.0117188 L 474 0.0117188 L 474 50.984375 L 0 50.984375 Z M 0 0.0117188 " clip-rule="nonzero"/></clipPath><clipPath id="e212c03d11"><path d="M 25.5 0.0117188 L 448.796875 0.0117188 C 455.558594 0.0117188 462.042969 2.699219 466.828125 7.480469 C 471.609375 12.265625 474.296875 18.75 474.296875 25.511719 C 474.296875 32.277344 471.609375 38.761719 466.828125 43.542969 C 462.042969 48.328125 455.558594 51.011719 448.796875 51.011719 L 25.5 51.011719 C 18.738281 51.011719 12.25 48.328125 7.46875 43.542969 C 2.6875 38.761719 0 32.277344 0 25.511719 C 0 18.75 2.6875 12.265625 7.46875 7.480469 C 12.25 2.699219 18.738281 0.0117188 25.5 0.0117188 " clip-rule="nonzero"/></clipPath><clipPath id="0116b9d8cf"><rect x="0" width="475" y="0" height="51"/></clipPath></defs><g clip-path="url(#313dde381c)"><g mask="url(#d100423514)"><g transform="matrix(1, 0, 0, 1, 0, -0.000000000000005976)"><g clip-path="url(#0116b9d8cf)"><g clip-path="url(#17199ce347)"><g clip-path="url(#e212c03d11)"><path fill="#eef0f2" d="M 0 0.0117188 L 473.300781 0.0117188 L 473.300781 51.460938 L 0 51.460938 Z M 0 0.0117188 " fill-opacity="1" fill-rule="nonzero"/></g></g></g></g></g></g></svg>