<svg xmlns="http://www.w3.org/2000/svg" xmlns:xlink="http://www.w3.org/1999/xlink" width="440" zoomAndPan="magnify" viewBox="0 0 330 57.749997" height="77" preserveAspectRatio="xMidYMid meet" version="1.0"><defs><filter x="0%" y="0%" width="100%" height="100%" id="25c32e8d12"><feColorMatrix values="0 0 0 0 1 0 0 0 0 1 0 0 0 0 1 0 0 0 1 0" color-interpolation-filters="sRGB"/></filter><clipPath id="a21e5d29f8"><path d="M 0.710938 0 L 329.289062 0 L 329.289062 57.5 L 0.710938 57.5 Z M 0.710938 0 " clip-rule="nonzero"/></clipPath><mask id="4535ab69b0"><g filter="url(#25c32e8d12)"><rect x="-33" width="396" fill="#000000" y="-5.775" height="69.299996" fill-opacity="0.498"/></g></mask><clipPath id="b1b909e53c"><path d="M 0.710938 0 L 329 0 L 329 57.5 L 0.710938 57.5 Z M 0.710938 0 " clip-rule="nonzero"/></clipPath><clipPath id="719bb9ac2d"><path d="M 29.460938 0 L 300.226562 0 C 307.851562 0 315.164062 3.027344 320.554688 8.421875 C 325.945312 13.8125 328.976562 21.125 328.976562 28.75 C 328.976562 36.375 325.945312 43.6875 320.554688 49.082031 C 315.164062 54.472656 307.851562 57.5 300.226562 57.5 L 29.460938 57.5 C 21.835938 57.5 14.523438 54.472656 9.132812 49.082031 C 3.742188 43.6875 0.710938 36.375 0.710938 28.75 C 0.710938 21.125 3.742188 13.8125 9.132812 8.421875 C 14.523438 3.027344 21.835938 0 29.460938 0 " clip-rule="nonzero"/></clipPath><clipPath id="9f776dc07b"><rect x="0" width="330" y="0" height="58"/></clipPath></defs><g clip-path="url(#a21e5d29f8)"><g mask="url(#4535ab69b0)"><g transform="matrix(1, 0, 0, 1, 0.000000000000000111, 0.000000000000003457)"><g clip-path="url(#9f776dc07b)"><g clip-path="url(#b1b909e53c)"><g clip-path="url(#719bb9ac2d)"><path fill="#eef0f2" d="M 0.710938 0 L 329.398438 0 L 329.398438 58.003906 L 0.710938 58.003906 Z M 0.710938 0 " fill-opacity="1" fill-rule="nonzero"/></g></g></g></g></g></g></svg>