<svg xmlns="http://www.w3.org/2000/svg" xmlns:xlink="http://www.w3.org/1999/xlink" width="440" zoomAndPan="magnify" viewBox="0 0 330 50.249999" height="67" preserveAspectRatio="xMidYMid meet" version="1.0"><defs><filter x="0%" y="0%" width="100%" height="100%" id="9b3aaf8a4a"><feColorMatrix values="0 0 0 0 1 0 0 0 0 1 0 0 0 0 1 0 0 0 1 0" color-interpolation-filters="sRGB"/></filter><clipPath id="9abf87df13"><path d="M 2.425781 0 L 327.574219 0 L 327.574219 49.511719 L 2.425781 49.511719 Z M 2.425781 0 " clip-rule="nonzero"/></clipPath><mask id="1d30f26d67"><g filter="url(#9b3aaf8a4a)"><rect x="-33" width="396" fill="#000000" y="-5.025" height="60.299998" fill-opacity="0.498"/></g></mask><clipPath id="a7a4a99c91"><path d="M 0.425781 0 L 325 0 L 325 49.511719 L 0.425781 49.511719 Z M 0.425781 0 " clip-rule="nonzero"/></clipPath><clipPath id="db27e56d86"><path d="M 25.183594 0 L 299.679688 0 C 306.246094 0 312.542969 2.609375 317.1875 7.25 C 321.828125 11.894531 324.4375 18.191406 324.4375 24.753906 C 324.4375 31.320312 321.828125 37.617188 317.1875 42.261719 C 312.542969 46.902344 306.246094 49.511719 299.679688 49.511719 L 25.183594 49.511719 C 18.617188 49.511719 12.320312 46.902344 7.675781 42.261719 C 3.035156 37.617188 0.425781 31.320312 0.425781 24.753906 C 0.425781 18.191406 3.035156 11.894531 7.675781 7.25 C 12.320312 2.609375 18.617188 0 25.183594 0 " clip-rule="nonzero"/></clipPath><clipPath id="8d4cc39654"><rect x="0" width="326" y="0" height="50"/></clipPath></defs><g clip-path="url(#9abf87df13)"><g mask="url(#1d30f26d67)"><g transform="matrix(1, 0, 0, 1, 2, 0)"><g clip-path="url(#8d4cc39654)"><g clip-path="url(#a7a4a99c91)"><g clip-path="url(#db27e56d86)"><path fill="#eef0f2" d="M 0.425781 0 L 325.425781 0 L 325.425781 50.648438 L 0.425781 50.648438 Z M 0.425781 0 " fill-opacity="1" fill-rule="nonzero"/></g></g></g></g></g></g></svg>