<svg xmlns="http://www.w3.org/2000/svg" xmlns:xlink="http://www.w3.org/1999/xlink" width="1920" zoomAndPan="magnify" viewBox="0 0 1440 809.999993" height="1080" preserveAspectRatio="xMidYMid meet" version="1.0"><defs><clipPath id="826dbe6fbf"><path d="M 0 580 L 1440 580 L 1440 810 L 0 810 Z M 0 580 " clip-rule="nonzero"/></clipPath><clipPath id="3034c034e1"><path d="M -3.269531 457.011719 L 1484.742188 657.816406 L 1391.960938 1345.332031 L -96.050781 1144.527344 Z M -3.269531 457.011719 " clip-rule="nonzero"/></clipPath><clipPath id="906a70db02"><path d="M -3.269531 457.011719 L 1484.742188 657.816406 L 1391.960938 1345.332031 L -96.050781 1144.527344 Z M -3.269531 457.011719 " clip-rule="nonzero"/></clipPath></defs><rect x="-144" width="1728" fill="#ffffff" y="-80.999999" height="971.999992" fill-opacity="1"/><rect x="-144" width="1728" fill="#ffffff" y="-80.999999" height="971.999992" fill-opacity="1"/><rect x="-144" width="1728" fill="#ffffff" y="-80.999999" height="971.999992" fill-opacity="1"/><path fill="#ecc643" d="M 0 0 L 1439.015625 0 L 1439.015625 808.734375 L 0 808.734375 Z M 0 0 " fill-opacity="1" fill-rule="nonzero"/><g clip-path="url(#826dbe6fbf)"><g clip-path="url(#3034c034e1)"><g clip-path="url(#906a70db02)"><path fill="#ffffff" d="M 1471.988281 662.753906 C 1448.175781 712.8125 1399.980469 746.261719 1345.105469 752.175781 C 1285.566406 758.707031 1226.976562 736.652344 1175.507812 708.0625 C 1147.691406 692.238281 1120.964844 674.484375 1093.777344 657.078125 C 1067.355469 640.195312 1041.039062 622.492188 1011.964844 609.828125 C 985.230469 598.3125 956.144531 591.890625 927.261719 596.316406 C 904.316406 599.878906 883.050781 609.496094 862.84375 620.503906 C 821.914062 643.28125 782.6875 675.03125 734.921875 680.652344 C 685.871094 686.519531 639.570312 662.792969 598.171875 639.726562 C 556.011719 616.140625 513.066406 589.117188 464.09375 582.09375 C 411.039062 574.515625 365.28125 599.140625 321.40625 625.265625 C 298.308594 639.214844 275.210938 653.160156 249.394531 662.578125 C 224.042969 671.644531 197.554688 676.808594 170.746094 678.183594 C 117.125 680.9375 62.335938 667.71875 16.175781 639.847656 C 5.046875 632.933594 -5.566406 625.257812 -15.714844 617.230469 C -17.945312 615.265625 -20.042969 615.398438 -22.253906 616.347656 C -23.644531 617.410156 -25.089844 618.878906 -25.476562 621.738281 C -32.921875 676.921875 -84.496094 1059.101562 -92 1114.691406 C -93.046875 1122.457031 -94.09375 1130.226562 -95.144531 1137.992188 C -95.585938 1141.261719 -93.109375 1144.507812 -89.84375 1144.949219 C -76.769531 1146.714844 -63.285156 1148.53125 -50.210938 1150.296875 C -14.667969 1155.09375 21.285156 1159.945312 56.828125 1164.742188 C 109.941406 1171.910156 162.644531 1179.023438 215.757812 1186.191406 C 280.308594 1194.902344 344.863281 1203.613281 409.824219 1212.378906 C 480.503906 1221.917969 550.773438 1231.398438 621.457031 1240.9375 C 692.953125 1250.585938 764.859375 1260.289062 836.355469 1269.9375 C 902.542969 1278.871094 969.136719 1287.855469 1035.324219 1296.789062 C 1091.703125 1304.398438 1148.085938 1312.007812 1204.058594 1319.558594 C 1244.503906 1325.019531 1284.953125 1330.476562 1325.398438 1335.933594 C 1344.601562 1338.527344 1363.746094 1341.527344 1382.597656 1343.652344 C 1383.414062 1343.761719 1384.230469 1343.875 1385.046875 1343.984375 C 1388.316406 1344.425781 1391.5625 1341.949219 1392.003906 1338.679688 C 1397.246094 1299.847656 1446.667969 933.609375 1451.90625 894.777344 C 1460.238281 833.054688 1468.621094 770.925781 1476.949219 709.203125 C 1478.882812 694.898438 1480.8125 680.589844 1482.742188 666.285156 C 1484.609375 658.628906 1474.914062 656.488281 1471.988281 662.753906 Z M 1471.988281 662.753906 " fill-opacity="1" fill-rule="nonzero"/></g></g></g></svg>