<svg xmlns="http://www.w3.org/2000/svg" xmlns:xlink="http://www.w3.org/1999/xlink" width="525" zoomAndPan="magnify" viewBox="0 0 393.75 50.999998" height="68" preserveAspectRatio="xMidYMid meet" version="1.0"><defs><filter x="0%" y="0%" width="100%" height="100%" id="c0820f15c9"><feColorMatrix values="0 0 0 0 1 0 0 0 0 1 0 0 0 0 1 0 0 0 1 0" color-interpolation-filters="sRGB"/></filter><clipPath id="ccce915df6"><path d="M 0 0.015625 L 393.5 0.015625 L 393.5 50.984375 L 0 50.984375 Z M 0 0.015625 " clip-rule="nonzero"/></clipPath><mask id="23ec53654d"><g filter="url(#c0820f15c9)"><rect x="-39.375" width="472.5" fill="#000000" y="-5.1" height="61.199998" fill-opacity="0.498"/></g></mask><clipPath id="40b4fd9a20"><path d="M 0 0.015625 L 393 0.015625 L 393 50.984375 L 0 50.984375 Z M 0 0.015625 " clip-rule="nonzero"/></clipPath><clipPath id="982fc20d78"><path d="M 25.5 0.015625 L 367.5 0.015625 C 374.261719 0.015625 380.746094 2.703125 385.53125 7.484375 C 390.3125 12.265625 393 18.753906 393 25.515625 C 393 32.277344 390.3125 38.765625 385.53125 43.546875 C 380.746094 48.328125 374.261719 51.015625 367.5 51.015625 L 25.5 51.015625 C 18.738281 51.015625 12.25 48.328125 7.46875 43.546875 C 2.6875 38.765625 0 32.277344 0 25.515625 C 0 18.753906 2.6875 12.265625 7.46875 7.484375 C 12.25 2.703125 18.738281 0.015625 25.5 0.015625 " clip-rule="nonzero"/></clipPath><clipPath id="ed0ef3e255"><rect x="0" width="394" y="0" height="51"/></clipPath></defs><g clip-path="url(#ccce915df6)"><g mask="url(#23ec53654d)"><g transform="matrix(1, 0, 0, 1, 0, 0.000000000000000139)"><g clip-path="url(#ed0ef3e255)"><g clip-path="url(#40b4fd9a20)"><g clip-path="url(#982fc20d78)"><path fill="#eef0f2" d="M 0 0.015625 L 394.417969 0.015625 L 394.417969 51.460938 L 0 51.460938 Z M 0 0.015625 " fill-opacity="1" fill-rule="nonzero"/></g></g></g></g></g></g></svg>