<svg xmlns="http://www.w3.org/2000/svg" xmlns:xlink="http://www.w3.org/1999/xlink" width="500" zoomAndPan="magnify" viewBox="0 0 375 374.999991" height="500" preserveAspectRatio="xMidYMid meet" version="1.0"><defs><clipPath id="4a13584678"><path d="M 187.5 0 C 83.945312 0 0 83.945312 0 187.5 C 0 291.054688 83.945312 375 187.5 375 C 291.054688 375 375 291.054688 375 187.5 C 375 83.945312 291.054688 0 187.5 0 " clip-rule="nonzero"/></clipPath><clipPath id="de52ef0f1c"><path d="M 112 89.90625 L 139.238281 89.90625 L 139.238281 286 L 112 286 Z M 112 89.90625 " clip-rule="nonzero"/></clipPath><clipPath id="bf4fccf156"><path d="M 139.238281 103.320312 L 139.238281 271.679688 C 139.238281 275.238281 137.824219 278.648438 135.308594 281.164062 C 132.792969 283.679688 129.382812 285.09375 125.824219 285.09375 C 122.265625 285.09375 118.855469 283.679688 116.339844 281.164062 C 113.824219 278.648438 112.410156 275.238281 112.410156 271.679688 L 112.410156 103.320312 C 112.410156 99.761719 113.824219 96.351562 116.339844 93.835938 C 118.855469 91.320312 122.265625 89.90625 125.824219 89.90625 C 129.382812 89.90625 132.792969 91.320312 135.308594 93.835938 C 137.824219 96.351562 139.238281 99.761719 139.238281 103.320312 " clip-rule="nonzero"/></clipPath><clipPath id="3a5d3c7d4d"><path d="M 150.902344 98.425781 L 302 98.425781 L 302 113 L 150.902344 113 Z M 150.902344 98.425781 " clip-rule="nonzero"/></clipPath><clipPath id="a3f5944d9e"><path d="M 157.910156 98.425781 L 294.675781 98.425781 C 298.546875 98.425781 301.6875 101.5625 301.6875 105.433594 C 301.6875 109.304688 298.546875 112.441406 294.675781 112.441406 L 157.910156 112.441406 C 154.039062 112.441406 150.902344 109.304688 150.902344 105.433594 C 150.902344 101.5625 154.039062 98.425781 157.910156 98.425781 " clip-rule="nonzero"/></clipPath><clipPath id="17d4702a2b"><path d="M 150.902344 138.597656 L 302 138.597656 L 302 153 L 150.902344 153 Z M 150.902344 138.597656 " clip-rule="nonzero"/></clipPath><clipPath id="a8f8ede8ba"><path d="M 157.910156 138.597656 L 294.675781 138.597656 C 298.546875 138.597656 301.6875 141.738281 301.6875 145.609375 C 301.6875 149.480469 298.546875 152.617188 294.675781 152.617188 L 157.910156 152.617188 C 154.039062 152.617188 150.902344 149.480469 150.902344 145.609375 C 150.902344 141.738281 154.039062 138.597656 157.910156 138.597656 " clip-rule="nonzero"/></clipPath><clipPath id="1560fa0f23"><path d="M 150.902344 180.492188 L 302 180.492188 L 302 195 L 150.902344 195 Z M 150.902344 180.492188 " clip-rule="nonzero"/></clipPath><clipPath id="4d859b9697"><path d="M 157.910156 180.492188 L 294.675781 180.492188 C 298.546875 180.492188 301.6875 183.628906 301.6875 187.5 C 301.6875 191.371094 298.546875 194.507812 294.675781 194.507812 L 157.910156 194.507812 C 154.039062 194.507812 150.902344 191.371094 150.902344 187.5 C 150.902344 183.628906 154.039062 180.492188 157.910156 180.492188 " clip-rule="nonzero"/></clipPath><clipPath id="e3be53380f"><path d="M 150.902344 222.382812 L 302 222.382812 L 302 237 L 150.902344 237 Z M 150.902344 222.382812 " clip-rule="nonzero"/></clipPath><clipPath id="e969abc8a9"><path d="M 157.910156 222.382812 L 294.675781 222.382812 C 298.546875 222.382812 301.6875 225.519531 301.6875 229.390625 C 301.6875 233.261719 298.546875 236.402344 294.675781 236.402344 L 157.910156 236.402344 C 154.039062 236.402344 150.902344 233.261719 150.902344 229.390625 C 150.902344 225.519531 154.039062 222.382812 157.910156 222.382812 " clip-rule="nonzero"/></clipPath><clipPath id="4bfe784855"><path d="M 150.902344 264.273438 L 302 264.273438 L 302 278 L 150.902344 278 Z M 150.902344 264.273438 " clip-rule="nonzero"/></clipPath><clipPath id="094183ed76"><path d="M 157.910156 264.273438 L 294.675781 264.273438 C 298.546875 264.273438 301.6875 267.414062 301.6875 271.285156 C 301.6875 275.15625 298.546875 278.292969 294.675781 278.292969 L 157.910156 278.292969 C 154.039062 278.292969 150.902344 275.15625 150.902344 271.285156 C 150.902344 267.414062 154.039062 264.273438 157.910156 264.273438 " clip-rule="nonzero"/></clipPath><clipPath id="a4c2fb5ac5"><path d="M 78.128906 259.710938 L 101.277344 259.710938 L 101.277344 282.859375 L 78.128906 282.859375 Z M 78.128906 259.710938 " clip-rule="nonzero"/></clipPath><clipPath id="3ec7aad569"><path d="M 89.703125 259.710938 C 83.3125 259.710938 78.128906 264.890625 78.128906 271.285156 C 78.128906 277.675781 83.3125 282.859375 89.703125 282.859375 C 96.097656 282.859375 101.277344 277.675781 101.277344 271.285156 C 101.277344 264.890625 96.097656 259.710938 89.703125 259.710938 " clip-rule="nonzero"/></clipPath><clipPath id="f546c6c869"><path d="M 78.128906 134.035156 L 101.277344 134.035156 L 101.277344 157.183594 L 78.128906 157.183594 Z M 78.128906 134.035156 " clip-rule="nonzero"/></clipPath><clipPath id="8b00890911"><path d="M 89.703125 134.035156 C 83.3125 134.035156 78.128906 139.214844 78.128906 145.609375 C 78.128906 152 83.3125 157.183594 89.703125 157.183594 C 96.097656 157.183594 101.277344 152 101.277344 145.609375 C 101.277344 139.214844 96.097656 134.035156 89.703125 134.035156 " clip-rule="nonzero"/></clipPath><clipPath id="1a5c4a5340"><path d="M 78.128906 93.859375 L 101.277344 93.859375 L 101.277344 117.007812 L 78.128906 117.007812 Z M 78.128906 93.859375 " clip-rule="nonzero"/></clipPath><clipPath id="34938cbadd"><path d="M 89.703125 93.859375 C 83.3125 93.859375 78.128906 99.042969 78.128906 105.433594 C 78.128906 111.824219 83.3125 117.007812 89.703125 117.007812 C 96.097656 117.007812 101.277344 111.824219 101.277344 105.433594 C 101.277344 99.042969 96.097656 93.859375 89.703125 93.859375 " clip-rule="nonzero"/></clipPath><clipPath id="46867b6e1d"><path d="M 81 175 L 105 175 L 105 200 L 81 200 Z M 81 175 " clip-rule="nonzero"/></clipPath><clipPath id="653333c3fe"><path d="M 80.007812 195.386719 L 99.863281 173.691406 L 106.714844 179.960938 L 86.859375 201.65625 Z M 80.007812 195.386719 " clip-rule="nonzero"/></clipPath><clipPath id="0add053d01"><path d="M 82.898438 192.230469 L 96.859375 176.972656 C 98.457031 175.230469 101.164062 175.109375 102.90625 176.707031 C 104.648438 178.300781 104.769531 181.007812 103.171875 182.753906 L 89.210938 198.007812 C 87.613281 199.75 84.90625 199.871094 83.164062 198.277344 C 81.421875 196.679688 81.300781 193.972656 82.898438 192.230469 " clip-rule="nonzero"/></clipPath><clipPath id="f40fc422af"><path d="M 74 186 L 89 186 L 89 199 L 74 199 Z M 74 186 " clip-rule="nonzero"/></clipPath><clipPath id="76ba3f4282"><path d="M 78.082031 184.761719 L 90.230469 194.183594 L 85.089844 200.8125 L 72.941406 191.386719 Z M 78.082031 184.761719 " clip-rule="nonzero"/></clipPath><clipPath id="c903dbbf60"><path d="M 81.136719 187.128906 L 86.605469 191.371094 C 88.292969 192.679688 88.597656 195.105469 87.289062 196.792969 C 85.984375 198.480469 83.554688 198.785156 81.867188 197.476562 L 76.398438 193.234375 C 74.710938 191.929688 74.40625 189.5 75.714844 187.8125 C 77.019531 186.128906 79.449219 185.820312 81.136719 187.128906 " clip-rule="nonzero"/></clipPath><clipPath id="32ed2b41bc"><path d="M 81 213 L 105 213 L 105 238 L 81 238 Z M 81 213 " clip-rule="nonzero"/></clipPath><clipPath id="4c0c6f9912"><path d="M 79.96875 233.242188 L 99.824219 211.546875 L 106.675781 217.816406 L 86.820312 239.511719 Z M 79.96875 233.242188 " clip-rule="nonzero"/></clipPath><clipPath id="2be205785c"><path d="M 82.859375 230.085938 L 96.820312 214.828125 C 98.417969 213.085938 101.125 212.964844 102.867188 214.5625 C 104.609375 216.15625 104.730469 218.863281 103.136719 220.605469 L 89.171875 235.863281 C 87.578125 237.605469 84.871094 237.726562 83.125 236.128906 C 81.382812 234.535156 81.261719 231.828125 82.859375 230.085938 " clip-rule="nonzero"/></clipPath><clipPath id="7991b20f26"><path d="M 74 224 L 89 224 L 89 237 L 74 237 Z M 74 224 " clip-rule="nonzero"/></clipPath><clipPath id="771c83bd06"><path d="M 78.042969 222.613281 L 90.191406 232.039062 L 85.050781 238.664062 L 72.902344 229.242188 Z M 78.042969 222.613281 " clip-rule="nonzero"/></clipPath><clipPath id="092e1076ed"><path d="M 81.097656 224.984375 L 86.566406 229.226562 C 88.253906 230.535156 88.558594 232.960938 87.25 234.648438 C 85.945312 236.335938 83.515625 236.640625 81.832031 235.332031 L 76.359375 231.089844 C 74.671875 229.78125 74.367188 227.355469 75.675781 225.667969 C 76.984375 223.980469 79.410156 223.675781 81.097656 224.984375 " clip-rule="nonzero"/></clipPath></defs><g clip-path="url(#4a13584678)"><rect x="-37.5" width="450" fill="#ecc643" y="-37.499999" height="449.999989" fill-opacity="1"/></g><g clip-path="url(#de52ef0f1c)"><g clip-path="url(#bf4fccf156)"><path fill="#141414" d="M 139.238281 89.90625 L 139.238281 287.46875 L 111.011719 287.46875 L 111.011719 89.90625 Z M 139.238281 89.90625 " fill-opacity="1" fill-rule="nonzero"/></g></g><g clip-path="url(#3a5d3c7d4d)"><g clip-path="url(#a3f5944d9e)"><path fill="#141414" d="M 150.902344 98.425781 L 301.113281 98.425781 L 301.113281 112.082031 L 150.902344 112.082031 Z M 150.902344 98.425781 " fill-opacity="1" fill-rule="nonzero"/></g></g><g clip-path="url(#17d4702a2b)"><g clip-path="url(#a8f8ede8ba)"><path fill="#141414" d="M 150.902344 138.597656 L 301.113281 138.597656 L 301.113281 152.253906 L 150.902344 152.253906 Z M 150.902344 138.597656 " fill-opacity="1" fill-rule="nonzero"/></g></g><g clip-path="url(#1560fa0f23)"><g clip-path="url(#4d859b9697)"><path fill="#141414" d="M 150.902344 180.492188 L 301.113281 180.492188 L 301.113281 194.148438 L 150.902344 194.148438 Z M 150.902344 180.492188 " fill-opacity="1" fill-rule="nonzero"/></g></g><g clip-path="url(#e3be53380f)"><g clip-path="url(#e969abc8a9)"><path fill="#141414" d="M 150.902344 222.382812 L 301.113281 222.382812 L 301.113281 236.039062 L 150.902344 236.039062 Z M 150.902344 222.382812 " fill-opacity="1" fill-rule="nonzero"/></g></g><g clip-path="url(#4bfe784855)"><g clip-path="url(#094183ed76)"><path fill="#141414" d="M 150.902344 264.273438 L 301.113281 264.273438 L 301.113281 277.929688 L 150.902344 277.929688 Z M 150.902344 264.273438 " fill-opacity="1" fill-rule="nonzero"/></g></g><g clip-path="url(#a4c2fb5ac5)"><g clip-path="url(#3ec7aad569)"><path fill="#141414" d="M 78.128906 259.710938 L 101.277344 259.710938 L 101.277344 282.859375 L 78.128906 282.859375 Z M 78.128906 259.710938 " fill-opacity="1" fill-rule="nonzero"/></g></g><g clip-path="url(#f546c6c869)"><g clip-path="url(#8b00890911)"><path fill="#141414" d="M 78.128906 134.035156 L 101.277344 134.035156 L 101.277344 157.183594 L 78.128906 157.183594 Z M 78.128906 134.035156 " fill-opacity="1" fill-rule="nonzero"/></g></g><g clip-path="url(#1a5c4a5340)"><g clip-path="url(#34938cbadd)"><path fill="#141414" d="M 78.128906 93.859375 L 101.277344 93.859375 L 101.277344 117.007812 L 78.128906 117.007812 Z M 78.128906 93.859375 " fill-opacity="1" fill-rule="nonzero"/></g></g><g clip-path="url(#46867b6e1d)"><g clip-path="url(#653333c3fe)"><g clip-path="url(#0add053d01)"><path fill="#141414" d="M 80.007812 195.386719 L 99.863281 173.691406 L 106.714844 179.960938 L 86.859375 201.65625 Z M 80.007812 195.386719 " fill-opacity="1" fill-rule="nonzero"/></g></g></g><g clip-path="url(#f40fc422af)"><g clip-path="url(#76ba3f4282)"><g clip-path="url(#c903dbbf60)"><path fill="#141414" d="M 78.082031 184.761719 L 89.125 193.328125 L 83.988281 199.953125 L 72.941406 191.386719 Z M 78.082031 184.761719 " fill-opacity="1" fill-rule="nonzero"/></g></g></g><g clip-path="url(#32ed2b41bc)"><g clip-path="url(#4c0c6f9912)"><g clip-path="url(#2be205785c)"><path fill="#141414" d="M 79.96875 233.242188 L 99.824219 211.546875 L 106.675781 217.816406 L 86.820312 239.511719 Z M 79.96875 233.242188 " fill-opacity="1" fill-rule="nonzero"/></g></g></g><g clip-path="url(#7991b20f26)"><g clip-path="url(#771c83bd06)"><g clip-path="url(#092e1076ed)"><path fill="#141414" d="M 78.042969 222.613281 L 89.089844 231.183594 L 83.949219 237.808594 L 72.902344 229.242188 Z M 78.042969 222.613281 " fill-opacity="1" fill-rule="nonzero"/></g></g></g></svg>