<svg xmlns="http://www.w3.org/2000/svg" xmlns:xlink="http://www.w3.org/1999/xlink" width="840" zoomAndPan="magnify" viewBox="0 0 630 43.499998" height="58" preserveAspectRatio="xMidYMid meet" version="1.0"><defs><filter x="0%" y="0%" width="100%" height="100%" id="277596844c"><feColorMatrix values="0 0 0 0 1 0 0 0 0 1 0 0 0 0 1 0 0 0 1 0" color-interpolation-filters="sRGB"/></filter><clipPath id="0ffccb33cc"><path d="M 3.578125 0 L 626.417969 0 L 626.417969 43.003906 L 3.578125 43.003906 Z M 3.578125 0 " clip-rule="nonzero"/></clipPath><mask id="b298df8ecb"><g filter="url(#277596844c)"><rect x="-63" width="756" fill="#000000" y="-4.35" height="52.199998" fill-opacity="0.498"/></g></mask><clipPath id="69a0be3164"><path d="M 0.578125 0 L 623.417969 0 L 623.417969 43 L 0.578125 43 Z M 0.578125 0 " clip-rule="nonzero"/></clipPath><clipPath id="ca748150dc"><path d="M 21.703125 0 L 602.296875 0 C 613.964844 0 623.421875 9.457031 623.421875 21.125 C 623.421875 32.789062 613.964844 42.246094 602.296875 42.246094 L 21.703125 42.246094 C 10.035156 42.246094 0.578125 32.789062 0.578125 21.125 C 0.578125 9.457031 10.035156 0 21.703125 0 " clip-rule="nonzero"/></clipPath><clipPath id="55a417cf9c"><rect x="0" width="624" y="0" height="44"/></clipPath></defs><g clip-path="url(#0ffccb33cc)"><g mask="url(#b298df8ecb)"><g transform="matrix(1, 0, 0, 1, 3, 0)"><g clip-path="url(#55a417cf9c)"><g clip-path="url(#69a0be3164)"><g clip-path="url(#ca748150dc)"><path fill="#eef0f2" d="M 0.578125 0 L 625.671875 0 L 625.671875 43.484375 L 0.578125 43.484375 Z M 0.578125 0 " fill-opacity="1" fill-rule="nonzero"/></g></g></g></g></g></g></svg>