<svg xmlns="http://www.w3.org/2000/svg" xmlns:xlink="http://www.w3.org/1999/xlink" width="840" zoomAndPan="magnify" viewBox="0 0 630 43.499998" height="58" preserveAspectRatio="xMidYMid meet" version="1.0"><defs><filter x="0%" y="0%" width="100%" height="100%" id="10f27d5d0b"><feColorMatrix values="0 0 0 0 1 0 0 0 0 1 0 0 0 0 1 0 0 0 1 0" color-interpolation-filters="sRGB"/></filter><clipPath id="dafdd4161a"><path d="M 3.578125 0 L 476 0 L 476 43.003906 L 3.578125 43.003906 Z M 3.578125 0 " clip-rule="nonzero"/></clipPath><mask id="562d02266d"><g filter="url(#10f27d5d0b)"><rect x="-63" width="756" fill="#000000" y="-4.35" height="52.199998" fill-opacity="0.749"/></g></mask><clipPath id="b76182af9d"><path d="M 0.578125 0 L 468 0 L 468 43 L 0.578125 43 Z M 0.578125 0 " clip-rule="nonzero"/></clipPath><clipPath id="0545a0d5a0"><path d="M 21.664062 0 L 446.300781 0 C 457.945312 0 467.382812 9.4375 467.382812 21.082031 C 467.382812 32.726562 457.945312 42.167969 446.300781 42.167969 L 21.664062 42.167969 C 10.019531 42.167969 0.578125 32.726562 0.578125 21.082031 C 0.578125 9.4375 10.019531 0 21.664062 0 " clip-rule="nonzero"/></clipPath><clipPath id="8481983049"><rect x="0" width="473" y="0" height="44"/></clipPath></defs><g clip-path="url(#dafdd4161a)"><g mask="url(#562d02266d)"><g transform="matrix(1, 0, 0, 1, 3, 0)"><g clip-path="url(#8481983049)"><g clip-path="url(#b76182af9d)"><g clip-path="url(#0545a0d5a0)"><path fill="#141414" d="M 0.578125 0 L 467.148438 0 L 467.148438 43.402344 L 0.578125 43.402344 Z M 0.578125 0 " fill-opacity="1" fill-rule="nonzero"/></g></g></g></g></g></g></svg>