<svg xmlns="http://www.w3.org/2000/svg" xmlns:xlink="http://www.w3.org/1999/xlink" width="840" zoomAndPan="magnify" viewBox="0 0 630 43.499998" height="58" preserveAspectRatio="xMidYMid meet" version="1.0"><defs><filter x="0%" y="0%" width="100%" height="100%" id="cc4a8cbe0e"><feColorMatrix values="0 0 0 0 1 0 0 0 0 1 0 0 0 0 1 0 0 0 1 0" color-interpolation-filters="sRGB"/></filter><clipPath id="cc398796cf"><path d="M 3.578125 0 L 162 0 L 162 43.003906 L 3.578125 43.003906 Z M 3.578125 0 " clip-rule="nonzero"/></clipPath><mask id="aa8d65fd2e"><g filter="url(#cc4a8cbe0e)"><rect x="-63" width="756" fill="#000000" y="-4.35" height="52.199998" fill-opacity="0.749"/></g></mask><clipPath id="fd8417c171"><path d="M 0.578125 0 L 157 0 L 157 43 L 0.578125 43 Z M 0.578125 0 " clip-rule="nonzero"/></clipPath><clipPath id="cbd09615ae"><path d="M 21.664062 0 L 135.152344 0 C 146.796875 0 156.238281 9.4375 156.238281 21.082031 C 156.238281 32.726562 146.796875 42.167969 135.152344 42.167969 L 21.664062 42.167969 C 10.019531 42.167969 0.578125 32.726562 0.578125 21.082031 C 0.578125 9.4375 10.019531 0 21.664062 0 " clip-rule="nonzero"/></clipPath><clipPath id="7de880f307"><rect x="0" width="159" y="0" height="44"/></clipPath></defs><g clip-path="url(#cc398796cf)"><g mask="url(#aa8d65fd2e)"><g transform="matrix(1, 0, 0, 1, 3, 0)"><g clip-path="url(#7de880f307)"><g clip-path="url(#fd8417c171)"><g clip-path="url(#cbd09615ae)"><path fill="#141414" d="M 0.578125 0 L 157.910156 0 L 157.910156 43.402344 L 0.578125 43.402344 Z M 0.578125 0 " fill-opacity="1" fill-rule="nonzero"/></g></g></g></g></g></g></svg>