<svg xmlns="http://www.w3.org/2000/svg" xmlns:xlink="http://www.w3.org/1999/xlink" width="840" zoomAndPan="magnify" viewBox="0 0 630 43.499998" height="58" preserveAspectRatio="xMidYMid meet" version="1.0"><defs><filter x="0%" y="0%" width="100%" height="100%" id="9c8be2a4d2"><feColorMatrix values="0 0 0 0 1 0 0 0 0 1 0 0 0 0 1 0 0 0 1 0" color-interpolation-filters="sRGB"/></filter><clipPath id="1162bba850"><path d="M 3.578125 0 L 626.417969 0 L 626.417969 43.003906 L 3.578125 43.003906 Z M 3.578125 0 " clip-rule="nonzero"/></clipPath><mask id="74c27865f6"><g filter="url(#9c8be2a4d2)"><rect x="-63" width="756" fill="#000000" y="-4.35" height="52.199998" fill-opacity="0.749"/></g></mask><clipPath id="66d5ebe730"><path d="M 0.578125 0 L 623.417969 0 L 623.417969 43 L 0.578125 43 Z M 0.578125 0 " clip-rule="nonzero"/></clipPath><clipPath id="ce9b374988"><path d="M 21.664062 0 L 602.335938 0 C 613.980469 0 623.421875 9.4375 623.421875 21.082031 C 623.421875 32.726562 613.980469 42.167969 602.335938 42.167969 L 21.664062 42.167969 C 10.019531 42.167969 0.578125 32.726562 0.578125 21.082031 C 0.578125 9.4375 10.019531 0 21.664062 0 " clip-rule="nonzero"/></clipPath><clipPath id="51ccb04b69"><rect x="0" width="624" y="0" height="44"/></clipPath></defs><g clip-path="url(#1162bba850)"><g mask="url(#74c27865f6)"><g transform="matrix(1, 0, 0, 1, 3, 0)"><g clip-path="url(#51ccb04b69)"><g clip-path="url(#66d5ebe730)"><g clip-path="url(#ce9b374988)"><path fill="#141414" d="M 0.578125 0 L 624.480469 0 L 624.480469 43.402344 L 0.578125 43.402344 Z M 0.578125 0 " fill-opacity="1" fill-rule="nonzero"/></g></g></g></g></g></g></svg>