<svg xmlns="http://www.w3.org/2000/svg" xmlns:xlink="http://www.w3.org/1999/xlink" width="1704" zoomAndPan="magnify" viewBox="0 0 1278 663.750002" height="885" preserveAspectRatio="xMidYMid meet" version="1.0"><defs><filter x="0%" y="0%" width="100%" height="100%" id="814153b357"><feColorMatrix values="0 0 0 0 1 0 0 0 0 1 0 0 0 0 1 0 0 0 1 0" color-interpolation-filters="sRGB"/></filter><g/><clipPath id="0baab38bc9"><path d="M 0.242188 0 L 1277.757812 0 L 1277.757812 663.5 L 0.242188 663.5 Z M 0.242188 0 " clip-rule="nonzero"/></clipPath><mask id="f0ed1b97d2"><g filter="url(#814153b357)"><rect x="-127.8" width="1533.6" fill="#000000" y="-66.375" height="796.500003" fill-opacity="0.498"/></g></mask><clipPath id="7a4b39f15f"><path d="M 0.242188 0 L 1277.757812 0 L 1277.757812 663.5 L 0.242188 663.5 Z M 0.242188 0 " clip-rule="nonzero"/></clipPath><clipPath id="82363edf0a"><path d="M 38.476562 0 L 1239.144531 0 C 1260.261719 0 1277.382812 17.117188 1277.382812 38.234375 L 1277.382812 625.265625 C 1277.382812 646.382812 1260.261719 663.5 1239.144531 663.5 L 38.476562 663.5 C 17.359375 663.5 0.242188 646.382812 0.242188 625.265625 L 0.242188 38.234375 C 0.242188 17.117188 17.359375 0 38.476562 0 " clip-rule="nonzero"/></clipPath><clipPath id="4fa6923884"><rect x="0" width="1278" y="0" height="664"/></clipPath></defs><g clip-path="url(#0baab38bc9)"><g mask="url(#f0ed1b97d2)"><g transform="matrix(1, 0, 0, 1, -0.000000000000000028, -0.00000000000001526)"><g clip-path="url(#4fa6923884)"><g clip-path="url(#7a4b39f15f)"><g clip-path="url(#82363edf0a)"><path fill="#ffffff" d="M 0.242188 0 L 1278.925781 0 L 1278.925781 664.007812 L 0.242188 664.007812 Z M 0.242188 0 " fill-opacity="1" fill-rule="nonzero"/></g></g></g></g></g></g><g fill="#000000" fill-opacity="1"><g transform="translate(568.880941, 86.641736)"><g><path d="M 25.359375 -17 L 19.765625 -17 C 19.546875 -18.4375 18.929688 -19.566406 17.921875 -20.390625 C 16.910156 -21.210938 15.644531 -21.625 14.125 -21.625 C 12.101562 -21.625 10.476562 -20.878906 9.25 -19.390625 C 8.03125 -17.910156 7.421875 -15.804688 7.421875 -13.078125 C 7.421875 -10.285156 8.035156 -8.160156 9.265625 -6.703125 C 10.492188 -5.253906 12.101562 -4.53125 14.09375 -4.53125 C 15.5625 -4.53125 16.804688 -4.914062 17.828125 -5.6875 C 18.847656 -6.457031 19.492188 -7.539062 19.765625 -8.9375 L 25.359375 -8.921875 C 25.160156 -7.316406 24.585938 -5.804688 23.640625 -4.390625 C 22.691406 -2.984375 21.40625 -1.835938 19.78125 -0.953125 C 18.164062 -0.078125 16.238281 0.359375 14 0.359375 C 11.664062 0.359375 9.582031 -0.164062 7.75 -1.21875 C 5.914062 -2.28125 4.46875 -3.8125 3.40625 -5.8125 C 2.34375 -7.8125 1.8125 -10.234375 1.8125 -13.078125 C 1.8125 -15.929688 2.347656 -18.359375 3.421875 -20.359375 C 4.492188 -22.359375 5.945312 -23.882812 7.78125 -24.9375 C 9.625 -25.988281 11.695312 -26.515625 14 -26.515625 C 16.019531 -26.515625 17.835938 -26.140625 19.453125 -25.390625 C 21.078125 -24.648438 22.40625 -23.570312 23.4375 -22.15625 C 24.476562 -20.738281 25.117188 -19.019531 25.359375 -17 Z M 25.359375 -17 "/></g></g></g><g fill="#000000" fill-opacity="1"><g transform="translate(595.939518, 86.641736)"><g><path d="M 7.609375 -26.15625 L 7.609375 0 L 2.171875 0 L 2.171875 -26.15625 Z M 7.609375 -26.15625 "/></g></g></g><g fill="#000000" fill-opacity="1"><g transform="translate(605.725576, 86.641736)"><g><path d="M 7.765625 0.375 C 5.890625 0.375 4.332031 -0.113281 3.09375 -1.09375 C 1.863281 -2.070312 1.25 -3.535156 1.25 -5.484375 C 1.25 -6.941406 1.59375 -8.085938 2.28125 -8.921875 C 2.976562 -9.765625 3.882812 -10.378906 5 -10.765625 C 6.125 -11.148438 7.332031 -11.398438 8.625 -11.515625 C 10.320312 -11.691406 11.535156 -11.875 12.265625 -12.0625 C 13.003906 -12.25 13.375 -12.65625 13.375 -13.28125 L 13.375 -13.359375 C 13.375 -14.171875 13.117188 -14.796875 12.609375 -15.234375 C 12.109375 -15.679688 11.394531 -15.90625 10.46875 -15.90625 C 9.488281 -15.90625 8.707031 -15.691406 8.125 -15.265625 C 7.539062 -14.835938 7.15625 -14.296875 6.96875 -13.640625 L 1.9375 -14.046875 C 2.3125 -15.835938 3.242188 -17.253906 4.734375 -18.296875 C 6.222656 -19.347656 8.140625 -19.875 10.484375 -19.875 C 11.941406 -19.875 13.304688 -19.644531 14.578125 -19.1875 C 15.847656 -18.726562 16.867188 -18.007812 17.640625 -17.03125 C 18.421875 -16.0625 18.8125 -14.796875 18.8125 -13.234375 L 18.8125 0 L 13.65625 0 L 13.65625 -2.71875 L 13.5 -2.71875 C 13.019531 -1.8125 12.304688 -1.066406 11.359375 -0.484375 C 10.410156 0.0859375 9.210938 0.375 7.765625 0.375 Z M 9.328125 -3.390625 C 10.515625 -3.390625 11.488281 -3.734375 12.25 -4.421875 C 13.019531 -5.117188 13.40625 -5.984375 13.40625 -7.015625 L 13.40625 -9.09375 C 13.195312 -8.945312 12.867188 -8.816406 12.421875 -8.703125 C 11.972656 -8.597656 11.492188 -8.503906 10.984375 -8.421875 C 10.484375 -8.335938 10.03125 -8.269531 9.625 -8.21875 C 8.675781 -8.082031 7.910156 -7.8125 7.328125 -7.40625 C 6.742188 -7.007812 6.453125 -6.425781 6.453125 -5.65625 C 6.453125 -4.90625 6.722656 -4.335938 7.265625 -3.953125 C 7.804688 -3.578125 8.492188 -3.390625 9.328125 -3.390625 Z M 9.328125 -3.390625 "/></g></g></g><g fill="#000000" fill-opacity="1"><g transform="translate(626.60079, 86.641736)"><g><path d="M 18.5 -14.03125 L 13.515625 -13.71875 C 13.378906 -14.34375 13.035156 -14.878906 12.484375 -15.328125 C 11.929688 -15.785156 11.179688 -16.015625 10.234375 -16.015625 C 9.390625 -16.015625 8.675781 -15.835938 8.09375 -15.484375 C 7.507812 -15.128906 7.222656 -14.660156 7.234375 -14.078125 C 7.222656 -13.609375 7.40625 -13.210938 7.78125 -12.890625 C 8.164062 -12.566406 8.8125 -12.304688 9.71875 -12.109375 L 13.265625 -11.390625 C 17.035156 -10.617188 18.925781 -8.847656 18.9375 -6.078125 C 18.9375 -4.796875 18.5625 -3.664062 17.8125 -2.6875 C 17.0625 -1.71875 16.03125 -0.960938 14.71875 -0.421875 C 13.40625 0.117188 11.898438 0.390625 10.203125 0.390625 C 7.609375 0.390625 5.539062 -0.148438 4 -1.234375 C 2.457031 -2.328125 1.554688 -3.8125 1.296875 -5.6875 L 6.65625 -5.96875 C 6.820312 -5.164062 7.210938 -4.554688 7.828125 -4.140625 C 8.453125 -3.734375 9.25 -3.53125 10.21875 -3.53125 C 11.175781 -3.53125 11.945312 -3.71875 12.53125 -4.09375 C 13.113281 -4.46875 13.40625 -4.945312 13.40625 -5.53125 C 13.382812 -6.5 12.546875 -7.148438 10.890625 -7.484375 L 7.5 -8.15625 C 3.695312 -8.914062 1.804688 -10.785156 1.828125 -13.765625 C 1.816406 -15.660156 2.570312 -17.148438 4.09375 -18.234375 C 5.613281 -19.328125 7.628906 -19.875 10.140625 -19.875 C 12.617188 -19.875 14.570312 -19.347656 16 -18.296875 C 17.425781 -17.253906 18.257812 -15.832031 18.5 -14.03125 Z M 18.5 -14.03125 "/></g></g></g><g fill="#000000" fill-opacity="1"><g transform="translate(646.811675, 86.641736)"><g><path d="M 18.5 -14.03125 L 13.515625 -13.71875 C 13.378906 -14.34375 13.035156 -14.878906 12.484375 -15.328125 C 11.929688 -15.785156 11.179688 -16.015625 10.234375 -16.015625 C 9.390625 -16.015625 8.675781 -15.835938 8.09375 -15.484375 C 7.507812 -15.128906 7.222656 -14.660156 7.234375 -14.078125 C 7.222656 -13.609375 7.40625 -13.210938 7.78125 -12.890625 C 8.164062 -12.566406 8.8125 -12.304688 9.71875 -12.109375 L 13.265625 -11.390625 C 17.035156 -10.617188 18.925781 -8.847656 18.9375 -6.078125 C 18.9375 -4.796875 18.5625 -3.664062 17.8125 -2.6875 C 17.0625 -1.71875 16.03125 -0.960938 14.71875 -0.421875 C 13.40625 0.117188 11.898438 0.390625 10.203125 0.390625 C 7.609375 0.390625 5.539062 -0.148438 4 -1.234375 C 2.457031 -2.328125 1.554688 -3.8125 1.296875 -5.6875 L 6.65625 -5.96875 C 6.820312 -5.164062 7.210938 -4.554688 7.828125 -4.140625 C 8.453125 -3.734375 9.25 -3.53125 10.21875 -3.53125 C 11.175781 -3.53125 11.945312 -3.71875 12.53125 -4.09375 C 13.113281 -4.46875 13.40625 -4.945312 13.40625 -5.53125 C 13.382812 -6.5 12.546875 -7.148438 10.890625 -7.484375 L 7.5 -8.15625 C 3.695312 -8.914062 1.804688 -10.785156 1.828125 -13.765625 C 1.816406 -15.660156 2.570312 -17.148438 4.09375 -18.234375 C 5.613281 -19.328125 7.628906 -19.875 10.140625 -19.875 C 12.617188 -19.875 14.570312 -19.347656 16 -18.296875 C 17.425781 -17.253906 18.257812 -15.832031 18.5 -14.03125 Z M 18.5 -14.03125 "/></g></g></g><g fill="#000000" fill-opacity="1"><g transform="translate(667.022559, 86.641736)"><g><path d="M 11.109375 0.390625 C 9.097656 0.390625 7.363281 -0.0195312 5.90625 -0.84375 C 4.457031 -1.664062 3.335938 -2.832031 2.546875 -4.34375 C 1.765625 -5.851562 1.375 -7.644531 1.375 -9.71875 C 1.375 -11.738281 1.765625 -13.507812 2.546875 -15.03125 C 3.335938 -16.550781 4.445312 -17.738281 5.875 -18.59375 C 7.300781 -19.445312 8.972656 -19.875 10.890625 -19.875 C 12.617188 -19.875 14.179688 -19.503906 15.578125 -18.765625 C 16.972656 -18.035156 18.078125 -16.929688 18.890625 -15.453125 C 19.710938 -13.984375 20.125 -12.132812 20.125 -9.90625 L 20.125 -8.421875 L 6.75 -8.421875 L 6.75 -8.40625 C 6.75 -6.9375 7.148438 -5.78125 7.953125 -4.9375 C 8.753906 -4.09375 9.835938 -3.671875 11.203125 -3.671875 C 12.109375 -3.671875 12.894531 -3.863281 13.5625 -4.25 C 14.226562 -4.632812 14.695312 -5.203125 14.96875 -5.953125 L 20 -5.625 C 19.613281 -3.800781 18.640625 -2.34375 17.078125 -1.25 C 15.523438 -0.15625 13.535156 0.390625 11.109375 0.390625 Z M 6.75 -11.796875 L 15 -11.796875 C 14.988281 -12.960938 14.613281 -13.921875 13.875 -14.671875 C 13.132812 -15.429688 12.171875 -15.8125 10.984375 -15.8125 C 9.773438 -15.8125 8.78125 -15.421875 8 -14.640625 C 7.226562 -13.859375 6.8125 -12.910156 6.75 -11.796875 Z M 6.75 -11.796875 "/></g></g></g><g fill="#000000" fill-opacity="1"><g transform="translate(688.523778, 86.641736)"><g><path d="M 18.5 -14.03125 L 13.515625 -13.71875 C 13.378906 -14.34375 13.035156 -14.878906 12.484375 -15.328125 C 11.929688 -15.785156 11.179688 -16.015625 10.234375 -16.015625 C 9.390625 -16.015625 8.675781 -15.835938 8.09375 -15.484375 C 7.507812 -15.128906 7.222656 -14.660156 7.234375 -14.078125 C 7.222656 -13.609375 7.40625 -13.210938 7.78125 -12.890625 C 8.164062 -12.566406 8.8125 -12.304688 9.71875 -12.109375 L 13.265625 -11.390625 C 17.035156 -10.617188 18.925781 -8.847656 18.9375 -6.078125 C 18.9375 -4.796875 18.5625 -3.664062 17.8125 -2.6875 C 17.0625 -1.71875 16.03125 -0.960938 14.71875 -0.421875 C 13.40625 0.117188 11.898438 0.390625 10.203125 0.390625 C 7.609375 0.390625 5.539062 -0.148438 4 -1.234375 C 2.457031 -2.328125 1.554688 -3.8125 1.296875 -5.6875 L 6.65625 -5.96875 C 6.820312 -5.164062 7.210938 -4.554688 7.828125 -4.140625 C 8.453125 -3.734375 9.25 -3.53125 10.21875 -3.53125 C 11.175781 -3.53125 11.945312 -3.71875 12.53125 -4.09375 C 13.113281 -4.46875 13.40625 -4.945312 13.40625 -5.53125 C 13.382812 -6.5 12.546875 -7.148438 10.890625 -7.484375 L 7.5 -8.15625 C 3.695312 -8.914062 1.804688 -10.785156 1.828125 -13.765625 C 1.816406 -15.660156 2.570312 -17.148438 4.09375 -18.234375 C 5.613281 -19.328125 7.628906 -19.875 10.140625 -19.875 C 12.617188 -19.875 14.570312 -19.347656 16 -18.296875 C 17.425781 -17.253906 18.257812 -15.832031 18.5 -14.03125 Z M 18.5 -14.03125 "/></g></g></g></svg>