<svg xmlns="http://www.w3.org/2000/svg" xmlns:xlink="http://www.w3.org/1999/xlink" width="600" zoomAndPan="magnify" viewBox="0 0 450 663.750002" height="885" preserveAspectRatio="xMidYMid meet" version="1.0"><defs><filter x="0%" y="0%" width="100%" height="100%" id="b36a4763d9"><feColorMatrix values="0 0 0 0 1 0 0 0 0 1 0 0 0 0 1 0 0 0 1 0" color-interpolation-filters="sRGB"/></filter><g/><clipPath id="9d654f039e"><path d="M 0.0859375 0 L 449.914062 0 L 449.914062 663.5 L 0.0859375 663.5 Z M 0.0859375 0 " clip-rule="nonzero"/></clipPath><mask id="0808d2a7f4"><g filter="url(#b36a4763d9)"><rect x="-45" width="540" fill="#000000" y="-66.375" height="796.500003" fill-opacity="0.498"/></g></mask><clipPath id="ef48698261"><path d="M 0.0859375 0 L 449.914062 0 L 449.914062 663.5 L 0.0859375 663.5 Z M 0.0859375 0 " clip-rule="nonzero"/></clipPath><clipPath id="77e4f66ca4"><path d="M 38.320312 0 L 411.507812 0 C 432.625 0 449.746094 17.117188 449.746094 38.234375 L 449.746094 625.265625 C 449.746094 646.382812 432.625 663.5 411.507812 663.5 L 38.320312 663.5 C 17.203125 663.5 0.0859375 646.382812 0.0859375 625.265625 L 0.0859375 38.234375 C 0.0859375 17.117188 17.203125 0 38.320312 0 " clip-rule="nonzero"/></clipPath><clipPath id="136644f4c5"><rect x="0" width="450" y="0" height="664"/></clipPath></defs><g clip-path="url(#9d654f039e)"><g mask="url(#0808d2a7f4)"><g transform="matrix(1, 0, 0, 1, 0, -0.00000000000001526)"><g clip-path="url(#136644f4c5)"><g clip-path="url(#ef48698261)"><g clip-path="url(#77e4f66ca4)"><path fill="#ffffff" d="M 0.0859375 0 L 451.609375 0 L 451.609375 664.007812 L 0.0859375 664.007812 Z M 0.0859375 0 " fill-opacity="1" fill-rule="nonzero"/></g></g></g></g></g></g><g fill="#000000" fill-opacity="1"><g transform="translate(150.828223, 88.890222)"><g><path d="M 16.46875 -18.640625 C 16.363281 -19.671875 15.921875 -20.46875 15.140625 -21.03125 C 14.359375 -21.601562 13.3125 -21.890625 12 -21.890625 C 10.644531 -21.890625 9.601562 -21.613281 8.875 -21.0625 C 8.15625 -20.507812 7.796875 -19.8125 7.796875 -18.96875 C 7.773438 -18.03125 8.175781 -17.320312 9 -16.84375 C 9.820312 -16.363281 10.800781 -15.988281 11.9375 -15.71875 L 14.28125 -15.15625 C 15.789062 -14.820312 17.132812 -14.328125 18.3125 -13.671875 C 19.5 -13.023438 20.429688 -12.191406 21.109375 -11.171875 C 21.785156 -10.160156 22.125 -8.925781 22.125 -7.46875 C 22.113281 -5.082031 21.21875 -3.175781 19.4375 -1.75 C 17.65625 -0.332031 15.164062 0.375 11.96875 0.375 C 8.789062 0.375 6.253906 -0.347656 4.359375 -1.796875 C 2.472656 -3.242188 1.5 -5.382812 1.4375 -8.21875 L 6.78125 -8.21875 C 6.875 -6.90625 7.390625 -5.914062 8.328125 -5.25 C 9.273438 -4.59375 10.46875 -4.265625 11.90625 -4.265625 C 13.3125 -4.265625 14.429688 -4.5625 15.265625 -5.15625 C 16.109375 -5.75 16.535156 -6.523438 16.546875 -7.484375 C 16.535156 -8.367188 16.144531 -9.050781 15.375 -9.53125 C 14.613281 -10.007812 13.519531 -10.414062 12.09375 -10.75 L 9.25 -11.46875 C 7.039062 -12 5.296875 -12.835938 4.015625 -13.984375 C 2.742188 -15.128906 2.113281 -16.664062 2.125 -18.59375 C 2.113281 -20.175781 2.535156 -21.5625 3.390625 -22.75 C 4.242188 -23.9375 5.421875 -24.859375 6.921875 -25.515625 C 8.421875 -26.179688 10.125 -26.515625 12.03125 -26.515625 C 13.96875 -26.515625 15.660156 -26.179688 17.109375 -25.515625 C 18.566406 -24.859375 19.703125 -23.9375 20.515625 -22.75 C 21.328125 -21.5625 21.742188 -20.191406 21.765625 -18.640625 Z M 16.46875 -18.640625 "/></g></g></g><g fill="#000000" fill-opacity="1"><g transform="translate(174.386302, 88.890222)"><g><path d="M 11.109375 0.390625 C 9.097656 0.390625 7.363281 -0.0195312 5.90625 -0.84375 C 4.457031 -1.664062 3.335938 -2.832031 2.546875 -4.34375 C 1.765625 -5.851562 1.375 -7.644531 1.375 -9.71875 C 1.375 -11.738281 1.765625 -13.507812 2.546875 -15.03125 C 3.335938 -16.550781 4.445312 -17.738281 5.875 -18.59375 C 7.300781 -19.445312 8.972656 -19.875 10.890625 -19.875 C 12.617188 -19.875 14.179688 -19.503906 15.578125 -18.765625 C 16.972656 -18.035156 18.078125 -16.929688 18.890625 -15.453125 C 19.710938 -13.984375 20.125 -12.132812 20.125 -9.90625 L 20.125 -8.421875 L 6.75 -8.421875 L 6.75 -8.40625 C 6.75 -6.9375 7.148438 -5.78125 7.953125 -4.9375 C 8.753906 -4.09375 9.835938 -3.671875 11.203125 -3.671875 C 12.109375 -3.671875 12.894531 -3.863281 13.5625 -4.25 C 14.226562 -4.632812 14.695312 -5.203125 14.96875 -5.953125 L 20 -5.625 C 19.613281 -3.800781 18.640625 -2.34375 17.078125 -1.25 C 15.523438 -0.15625 13.535156 0.390625 11.109375 0.390625 Z M 6.75 -11.796875 L 15 -11.796875 C 14.988281 -12.960938 14.613281 -13.921875 13.875 -14.671875 C 13.132812 -15.429688 12.171875 -15.8125 10.984375 -15.8125 C 9.773438 -15.8125 8.78125 -15.421875 8 -14.640625 C 7.226562 -13.859375 6.8125 -12.910156 6.75 -11.796875 Z M 6.75 -11.796875 "/></g></g></g><g fill="#000000" fill-opacity="1"><g transform="translate(195.887521, 88.890222)"><g><path d="M 12.609375 -19.625 L 12.609375 -15.53125 L 8.921875 -15.53125 L 8.921875 -6.03125 C 8.921875 -5.28125 9.085938 -4.769531 9.421875 -4.5 C 9.765625 -4.238281 10.207031 -4.109375 10.75 -4.109375 C 11.007812 -4.109375 11.265625 -4.128906 11.515625 -4.171875 C 11.773438 -4.222656 11.972656 -4.265625 12.109375 -4.296875 L 12.96875 -0.25 C 12.695312 -0.15625 12.3125 -0.0507812 11.8125 0.0625 C 11.320312 0.175781 10.722656 0.242188 10.015625 0.265625 C 8.035156 0.347656 6.445312 -0.078125 5.25 -1.015625 C 4.0625 -1.953125 3.46875 -3.382812 3.46875 -5.3125 L 3.46875 -15.53125 L 0.796875 -15.53125 L 0.796875 -19.625 L 3.46875 -19.625 L 3.46875 -24.3125 L 8.921875 -24.3125 L 8.921875 -19.625 Z M 12.609375 -19.625 "/></g></g></g><g fill="#000000" fill-opacity="1"><g transform="translate(209.863955, 88.890222)"><g><path d="M 12.609375 -19.625 L 12.609375 -15.53125 L 8.921875 -15.53125 L 8.921875 -6.03125 C 8.921875 -5.28125 9.085938 -4.769531 9.421875 -4.5 C 9.765625 -4.238281 10.207031 -4.109375 10.75 -4.109375 C 11.007812 -4.109375 11.265625 -4.128906 11.515625 -4.171875 C 11.773438 -4.222656 11.972656 -4.265625 12.109375 -4.296875 L 12.96875 -0.25 C 12.695312 -0.15625 12.3125 -0.0507812 11.8125 0.0625 C 11.320312 0.175781 10.722656 0.242188 10.015625 0.265625 C 8.035156 0.347656 6.445312 -0.078125 5.25 -1.015625 C 4.0625 -1.953125 3.46875 -3.382812 3.46875 -5.3125 L 3.46875 -15.53125 L 0.796875 -15.53125 L 0.796875 -19.625 L 3.46875 -19.625 L 3.46875 -24.3125 L 8.921875 -24.3125 L 8.921875 -19.625 Z M 12.609375 -19.625 "/></g></g></g><g fill="#000000" fill-opacity="1"><g transform="translate(223.840389, 88.890222)"><g><path d="M 2.171875 0 L 2.171875 -19.625 L 7.609375 -19.625 L 7.609375 0 Z M 4.90625 -22.15625 C 4.101562 -22.15625 3.410156 -22.421875 2.828125 -22.953125 C 2.253906 -23.492188 1.96875 -24.144531 1.96875 -24.90625 C 1.96875 -25.664062 2.253906 -26.3125 2.828125 -26.84375 C 3.410156 -27.382812 4.101562 -27.65625 4.90625 -27.65625 C 5.71875 -27.65625 6.410156 -27.382812 6.984375 -26.84375 C 7.566406 -26.3125 7.859375 -25.664062 7.859375 -24.90625 C 7.859375 -24.144531 7.566406 -23.492188 6.984375 -22.953125 C 6.410156 -22.421875 5.71875 -22.15625 4.90625 -22.15625 Z M 4.90625 -22.15625 "/></g></g></g><g fill="#000000" fill-opacity="1"><g transform="translate(233.626447, 88.890222)"><g><path d="M 7.609375 -11.34375 L 7.609375 0 L 2.171875 0 L 2.171875 -19.625 L 7.359375 -19.625 L 7.359375 -16.15625 L 7.59375 -16.15625 C 8.03125 -17.300781 8.753906 -18.207031 9.765625 -18.875 C 10.785156 -19.539062 12.023438 -19.875 13.484375 -19.875 C 15.523438 -19.875 17.164062 -19.210938 18.40625 -17.890625 C 19.644531 -16.578125 20.265625 -14.773438 20.265625 -12.484375 L 20.265625 0 L 14.8125 0 L 14.8125 -11.515625 C 14.820312 -12.722656 14.515625 -13.664062 13.890625 -14.34375 C 13.273438 -15.019531 12.421875 -15.359375 11.328125 -15.359375 C 10.234375 -15.359375 9.34375 -15.003906 8.65625 -14.296875 C 7.96875 -13.597656 7.617188 -12.613281 7.609375 -11.34375 Z M 7.609375 -11.34375 "/></g></g></g><g fill="#000000" fill-opacity="1"><g transform="translate(255.996398, 88.890222)"><g><path d="M 11.015625 7.640625 C 8.367188 7.640625 6.289062 7.117188 4.78125 6.078125 C 3.28125 5.035156 2.367188 3.773438 2.046875 2.296875 L 7.078125 1.625 C 7.296875 2.15625 7.726562 2.640625 8.375 3.078125 C 9.019531 3.515625 9.941406 3.734375 11.140625 3.734375 C 12.316406 3.734375 13.289062 3.453125 14.0625 2.890625 C 14.832031 2.328125 15.21875 1.398438 15.21875 0.109375 L 15.21875 -3.46875 L 15 -3.46875 C 14.632812 -2.664062 14 -1.929688 13.09375 -1.265625 C 12.195312 -0.609375 10.96875 -0.28125 9.40625 -0.28125 C 7.925781 -0.28125 6.582031 -0.625 5.375 -1.3125 C 4.175781 -2 3.21875 -3.050781 2.5 -4.46875 C 1.789062 -5.882812 1.4375 -7.675781 1.4375 -9.84375 C 1.4375 -12.070312 1.800781 -13.925781 2.53125 -15.40625 C 3.257812 -16.894531 4.226562 -18.007812 5.4375 -18.75 C 6.644531 -19.5 7.960938 -19.875 9.390625 -19.875 C 10.484375 -19.875 11.398438 -19.6875 12.140625 -19.3125 C 12.890625 -18.945312 13.492188 -18.488281 13.953125 -17.9375 C 14.410156 -17.394531 14.757812 -16.859375 15 -16.328125 L 15.203125 -16.328125 L 15.203125 -19.625 L 20.609375 -19.625 L 20.609375 0.1875 C 20.609375 1.8125 20.195312 3.175781 19.375 4.28125 C 18.550781 5.394531 17.421875 6.234375 15.984375 6.796875 C 14.546875 7.359375 12.890625 7.640625 11.015625 7.640625 Z M 11.125 -4.375 C 12.4375 -4.375 13.453125 -4.859375 14.171875 -5.828125 C 14.890625 -6.796875 15.25 -8.144531 15.25 -9.875 C 15.25 -11.59375 14.890625 -12.96875 14.171875 -14 C 13.460938 -15.03125 12.445312 -15.546875 11.125 -15.546875 C 9.78125 -15.546875 8.753906 -15.015625 8.046875 -13.953125 C 7.347656 -12.898438 7 -11.539062 7 -9.875 C 7 -8.175781 7.351562 -6.832031 8.0625 -5.84375 C 8.769531 -4.863281 9.789062 -4.375 11.125 -4.375 Z M 11.125 -4.375 "/></g></g></g><g fill="#000000" fill-opacity="1"><g transform="translate(278.775166, 88.890222)"><g><path d="M 18.5 -14.03125 L 13.515625 -13.71875 C 13.378906 -14.34375 13.035156 -14.878906 12.484375 -15.328125 C 11.929688 -15.785156 11.179688 -16.015625 10.234375 -16.015625 C 9.390625 -16.015625 8.675781 -15.835938 8.09375 -15.484375 C 7.507812 -15.128906 7.222656 -14.660156 7.234375 -14.078125 C 7.222656 -13.609375 7.40625 -13.210938 7.78125 -12.890625 C 8.164062 -12.566406 8.8125 -12.304688 9.71875 -12.109375 L 13.265625 -11.390625 C 17.035156 -10.617188 18.925781 -8.847656 18.9375 -6.078125 C 18.9375 -4.796875 18.5625 -3.664062 17.8125 -2.6875 C 17.0625 -1.71875 16.03125 -0.960938 14.71875 -0.421875 C 13.40625 0.117188 11.898438 0.390625 10.203125 0.390625 C 7.609375 0.390625 5.539062 -0.148438 4 -1.234375 C 2.457031 -2.328125 1.554688 -3.8125 1.296875 -5.6875 L 6.65625 -5.96875 C 6.820312 -5.164062 7.210938 -4.554688 7.828125 -4.140625 C 8.453125 -3.734375 9.25 -3.53125 10.21875 -3.53125 C 11.175781 -3.53125 11.945312 -3.71875 12.53125 -4.09375 C 13.113281 -4.46875 13.40625 -4.945312 13.40625 -5.53125 C 13.382812 -6.5 12.546875 -7.148438 10.890625 -7.484375 L 7.5 -8.15625 C 3.695312 -8.914062 1.804688 -10.785156 1.828125 -13.765625 C 1.816406 -15.660156 2.570312 -17.148438 4.09375 -18.234375 C 5.613281 -19.328125 7.628906 -19.875 10.140625 -19.875 C 12.617188 -19.875 14.570312 -19.347656 16 -18.296875 C 17.425781 -17.253906 18.257812 -15.832031 18.5 -14.03125 Z M 18.5 -14.03125 "/></g></g></g></svg>