<svg xmlns="http://www.w3.org/2000/svg" xmlns:xlink="http://www.w3.org/1999/xlink" width="60" zoomAndPan="magnify" viewBox="0 0 45 52.499999" height="70" preserveAspectRatio="xMidYMid meet" version="1.0"><defs><clipPath id="15ac00ef8f"><path d="M 0.210938 27.867188 L 44.238281 27.867188 L 44.238281 52 L 0.210938 52 Z M 0.210938 27.867188 " clip-rule="nonzero"/></clipPath><clipPath id="413f718c2f"><path d="M 12.28125 27.867188 L 32.105469 27.867188 C 38.769531 27.867188 44.175781 33.269531 44.175781 39.9375 C 44.175781 46.601562 38.769531 52.003906 32.105469 52.003906 L 12.28125 52.003906 C 5.617188 52.003906 0.210938 46.601562 0.210938 39.9375 C 0.210938 33.269531 5.617188 27.867188 12.28125 27.867188 " clip-rule="nonzero"/></clipPath><clipPath id="6680d34dc4"><path d="M 9.945312 0 L 34.441406 0 L 34.441406 24.496094 L 9.945312 24.496094 Z M 9.945312 0 " clip-rule="nonzero"/></clipPath><clipPath id="ac02b0e309"><path d="M 22.195312 0 C 15.429688 0 9.945312 5.484375 9.945312 12.246094 C 9.945312 19.011719 15.429688 24.496094 22.195312 24.496094 C 28.957031 24.496094 34.441406 19.011719 34.441406 12.246094 C 34.441406 5.484375 28.957031 0 22.195312 0 " clip-rule="nonzero"/></clipPath><clipPath id="358c879446"><path d="M 9.945312 0 L 34.460938 0 L 34.460938 24.515625 L 9.945312 24.515625 Z M 9.945312 0 " clip-rule="nonzero"/></clipPath><clipPath id="753d1ae528"><path d="M 22.203125 0 C 15.433594 0 9.945312 5.488281 9.945312 12.257812 C 9.945312 19.027344 15.433594 24.515625 22.203125 24.515625 C 28.972656 24.515625 34.460938 19.027344 34.460938 12.257812 C 34.460938 5.488281 28.972656 0 22.203125 0 " clip-rule="nonzero"/></clipPath></defs><g clip-path="url(#15ac00ef8f)"><g clip-path="url(#413f718c2f)"><path fill="#545454" d="M 0.210938 27.867188 L 44.238281 27.867188 L 44.238281 51.839844 L 0.210938 51.839844 Z M 0.210938 27.867188 " fill-opacity="1" fill-rule="nonzero"/></g></g><g clip-path="url(#6680d34dc4)"><g clip-path="url(#ac02b0e309)"><path fill="#545454" d="M 9.945312 0 L 34.441406 0 L 34.441406 24.496094 L 9.945312 24.496094 Z M 9.945312 0 " fill-opacity="1" fill-rule="nonzero"/></g></g><g clip-path="url(#358c879446)"><g clip-path="url(#753d1ae528)"><path stroke-linecap="butt" transform="matrix(0.743629, 0, 0, 0.743629, 9.946153, 0.000000000000031673)" fill="none" stroke-linejoin="miter" d="M 16.482652 -0.000000000000042592 C 7.379276 -0.000000000000042592 -0.00112965 7.380406 -0.00112965 16.483781 C -0.00112965 25.587157 7.379276 32.967563 16.482652 32.967563 C 25.586027 32.967563 32.966433 25.587157 32.966433 16.483781 C 32.966433 7.380406 25.586027 -0.000000000000042592 16.482652 -0.000000000000042592 " stroke="#545454" stroke-width="8" stroke-opacity="1" stroke-miterlimit="4"/></g></g></svg>