<svg xmlns="http://www.w3.org/2000/svg" xmlns:xlink="http://www.w3.org/1999/xlink" width="448" zoomAndPan="magnify" viewBox="0 0 336 37.5" height="50" preserveAspectRatio="xMidYMid meet" version="1.0"><defs><filter x="0%" y="0%" width="100%" height="100%" id="90232f33ad"><feColorMatrix values="0 0 0 0 1 0 0 0 0 1 0 0 0 0 1 0 0 0 1 0" color-interpolation-filters="sRGB"/></filter><g/><clipPath id="b5e0525fef"><path d="M 2.210938 0 L 333.789062 0 L 333.789062 37.007812 L 2.210938 37.007812 Z M 2.210938 0 " clip-rule="nonzero"/></clipPath><mask id="a3c40a0af8"><g filter="url(#90232f33ad)"><rect x="-33.6" width="403.2" fill="#000000" y="-3.75" height="45" fill-opacity="0.498"/></g></mask><clipPath id="6cd1508663"><path d="M 0.210938 0 L 331.789062 0 L 331.789062 37 L 0.210938 37 Z M 0.210938 0 " clip-rule="nonzero"/></clipPath><clipPath id="a530019608"><path d="M 18.535156 0 L 313.464844 0 C 323.585938 0 331.789062 8.203125 331.789062 18.324219 C 331.789062 28.445312 323.585938 36.648438 313.464844 36.648438 L 18.535156 36.648438 C 8.414062 36.648438 0.210938 28.445312 0.210938 18.324219 C 0.210938 8.203125 8.414062 0 18.535156 0 " clip-rule="nonzero"/></clipPath><clipPath id="22def395e0"><rect x="0" width="332" y="0" height="38"/></clipPath><mask id="7695670990"><g filter="url(#90232f33ad)"><rect x="-33.6" width="403.2" fill="#000000" y="-3.75" height="45" fill-opacity="0.498"/></g></mask><clipPath id="6b6b125dd2"><rect x="0" width="44" y="0" height="19"/></clipPath></defs><g clip-path="url(#b5e0525fef)"><g mask="url(#a3c40a0af8)"><g transform="matrix(1, 0, 0, 1, 2, -0.000000000000001478)"><g clip-path="url(#22def395e0)"><g clip-path="url(#6cd1508663)"><g clip-path="url(#a530019608)"><path fill="#545454" d="M 0.210938 0 L 333.585938 0 L 333.585938 37.457031 L 0.210938 37.457031 Z M 0.210938 0 " fill-opacity="1" fill-rule="nonzero"/></g></g></g></g></g></g><g mask="url(#7695670990)"><g transform="matrix(1, 0, 0, 1, 146, 9)"><g clip-path="url(#6b6b125dd2)"><g fill="#ffffff" fill-opacity="1"><g transform="translate(0.857102, 14.502932)"><g><path d="M 4.75 0 L 0.9375 0 L 0.9375 -10.765625 L 4.78125 -10.765625 C 5.863281 -10.765625 6.796875 -10.546875 7.578125 -10.109375 C 8.359375 -9.679688 8.957031 -9.066406 9.375 -8.265625 C 9.800781 -7.460938 10.015625 -6.503906 10.015625 -5.390625 C 10.015625 -4.265625 9.800781 -3.300781 9.375 -2.5 C 8.957031 -1.695312 8.351562 -1.078125 7.5625 -0.640625 C 6.78125 -0.210938 5.84375 0 4.75 0 Z M 3.203125 -1.953125 L 4.65625 -1.953125 C 5.664062 -1.953125 6.429688 -2.222656 6.953125 -2.765625 C 7.484375 -3.316406 7.75 -4.191406 7.75 -5.390625 C 7.75 -6.585938 7.484375 -7.457031 6.953125 -8 C 6.429688 -8.539062 5.664062 -8.8125 4.65625 -8.8125 L 3.203125 -8.8125 Z M 3.203125 -1.953125 "/></g></g></g><g fill="#ffffff" fill-opacity="1"><g transform="translate(11.619377, 14.502932)"><g><path d="M 10.828125 -5.375 C 10.828125 -4.207031 10.601562 -3.210938 10.15625 -2.390625 C 9.71875 -1.566406 9.117188 -0.9375 8.359375 -0.5 C 7.597656 -0.0703125 6.738281 0.140625 5.78125 0.140625 C 4.820312 0.140625 3.960938 -0.0703125 3.203125 -0.5 C 2.441406 -0.9375 1.84375 -1.566406 1.40625 -2.390625 C 0.96875 -3.210938 0.75 -4.207031 0.75 -5.375 C 0.75 -6.550781 0.96875 -7.550781 1.40625 -8.375 C 1.84375 -9.195312 2.441406 -9.820312 3.203125 -10.25 C 3.960938 -10.6875 4.820312 -10.90625 5.78125 -10.90625 C 6.738281 -10.90625 7.597656 -10.6875 8.359375 -10.25 C 9.117188 -9.820312 9.71875 -9.195312 10.15625 -8.375 C 10.601562 -7.550781 10.828125 -6.550781 10.828125 -5.375 Z M 8.515625 -5.375 C 8.515625 -6.519531 8.265625 -7.390625 7.765625 -7.984375 C 7.273438 -8.585938 6.613281 -8.890625 5.78125 -8.890625 C 4.957031 -8.890625 4.296875 -8.585938 3.796875 -7.984375 C 3.296875 -7.390625 3.046875 -6.519531 3.046875 -5.375 C 3.046875 -4.238281 3.296875 -3.367188 3.796875 -2.765625 C 4.296875 -2.160156 4.957031 -1.859375 5.78125 -1.859375 C 6.613281 -1.859375 7.273438 -2.160156 7.765625 -2.765625 C 8.265625 -3.367188 8.515625 -4.238281 8.515625 -5.375 Z M 8.515625 -5.375 "/></g></g></g><g fill="#ffffff" fill-opacity="1"><g transform="translate(23.190926, 14.502932)"><g><path d="M 9.9375 -10.765625 L 9.9375 0 L 7.96875 0 L 3.296875 -6.765625 L 3.203125 -6.765625 L 3.203125 0 L 0.9375 0 L 0.9375 -10.765625 L 2.9375 -10.765625 L 7.578125 -4 L 7.671875 -4 L 7.671875 -10.765625 Z M 9.9375 -10.765625 "/></g></g></g><g fill="#ffffff" fill-opacity="1"><g transform="translate(34.068811, 14.502932)"><g><path d="M 0.9375 0 L 0.9375 -10.765625 L 8.1875 -10.765625 L 8.1875 -8.890625 L 3.203125 -8.890625 L 3.203125 -6.328125 L 7.8125 -6.328125 L 7.8125 -4.453125 L 3.203125 -4.453125 L 3.203125 -1.875 L 8.203125 -1.875 L 8.203125 0 Z M 0.9375 0 "/></g></g></g></g></g></g></svg>