<svg xmlns="http://www.w3.org/2000/svg" xmlns:xlink="http://www.w3.org/1999/xlink" width="519" zoomAndPan="magnify" viewBox="0 0 389.25 809.999971" height="1080" preserveAspectRatio="xMidYMid meet" version="1.0"><defs><clipPath id="94f47ae4f0"><path d="M 0 0.777344 L 387 0.777344 L 387 808 L 0 808 Z M 0 0.777344 " clip-rule="nonzero"/></clipPath><clipPath id="5489488d93"><path d="M 38.175781 0.777344 L 349.957031 0.777344 C 360.082031 0.777344 369.792969 4.800781 376.953125 11.960938 C 384.109375 19.121094 388.132812 28.832031 388.132812 38.957031 L 388.132812 771.042969 C 388.132812 781.167969 384.109375 790.878906 376.953125 798.039062 C 369.792969 805.199219 360.082031 809.222656 349.957031 809.222656 L 38.175781 809.222656 C 28.050781 809.222656 18.339844 805.199219 11.179688 798.039062 C 4.023438 790.878906 0 781.167969 0 771.042969 L 0 38.957031 C 0 28.832031 4.023438 19.121094 11.179688 11.960938 C 18.339844 4.800781 28.050781 0.777344 38.175781 0.777344 " clip-rule="nonzero"/></clipPath></defs><g clip-path="url(#94f47ae4f0)"><g clip-path="url(#5489488d93)"><path fill="#eef0f2" d="M 0 0.777344 L 386.535156 0.777344 L 386.535156 807.957031 L 0 807.957031 Z M 0 0.777344 " fill-opacity="1" fill-rule="nonzero"/></g></g></svg>