<svg xmlns="http://www.w3.org/2000/svg" xmlns:xlink="http://www.w3.org/1999/xlink" width="269" zoomAndPan="magnify" viewBox="0 0 201.75 44.999999" height="60" preserveAspectRatio="xMidYMid meet" version="1.0"><defs><filter x="0%" y="0%" width="100%" height="100%" id="6b13a1e181"><feColorMatrix values="0 0 0 0 1 0 0 0 0 1 0 0 0 0 1 0 0 0 1 0" color-interpolation-filters="sRGB"/></filter><clipPath id="5ff867f459"><path d="M 0 0.0273438 L 201.5 0.0273438 L 201.5 44.972656 L 0 44.972656 Z M 0 0.0273438 " clip-rule="nonzero"/></clipPath><mask id="a3538ee27c"><g filter="url(#6b13a1e181)"><rect x="-20.175" width="242.1" fill="#000000" y="-4.5" height="53.999999" fill-opacity="0.498"/></g></mask><clipPath id="1ba65b01ab"><path d="M 0 0.0273438 L 201.5 0.0273438 L 201.5 43 L 0 43 Z M 0 0.0273438 " clip-rule="nonzero"/></clipPath><clipPath id="dcb6d7a136"><path d="M 22.5 0.0273438 L 179.25 0.0273438 C 191.675781 0.0273438 201.75 10.101562 201.75 22.527344 C 201.75 34.953125 191.675781 45.027344 179.25 45.027344 L 22.5 45.027344 C 10.074219 45.027344 0 34.953125 0 22.527344 C 0 10.101562 10.074219 0.0273438 22.5 0.0273438 " clip-rule="nonzero"/></clipPath><clipPath id="c3079738e1"><rect x="0" width="202" y="0" height="45"/></clipPath></defs><g clip-path="url(#5ff867f459)"><g mask="url(#a3538ee27c)"><g transform="matrix(1, 0, 0, 1, 0, 0.000000000000009954)"><g clip-path="url(#c3079738e1)"><g clip-path="url(#1ba65b01ab)"><g clip-path="url(#dcb6d7a136)"><path fill="#eef0f2" d="M 0 0.0273438 L 201.769531 0.0273438 L 201.769531 42.957031 L 0 42.957031 Z M 0 0.0273438 " fill-opacity="1" fill-rule="nonzero"/></g></g></g></g></g></g></svg>