<svg xmlns="http://www.w3.org/2000/svg" xmlns:xlink="http://www.w3.org/1999/xlink" width="448" zoomAndPan="magnify" viewBox="0 0 336 37.5" height="50" preserveAspectRatio="xMidYMid meet" version="1.0"><defs><filter x="0%" y="0%" width="100%" height="100%" id="bbd389f9d2"><feColorMatrix values="0 0 0 0 1 0 0 0 0 1 0 0 0 0 1 0 0 0 1 0" color-interpolation-filters="sRGB"/></filter><g/><clipPath id="505a8e4dab"><path d="M 2.210938 0 L 333.789062 0 L 333.789062 37.007812 L 2.210938 37.007812 Z M 2.210938 0 " clip-rule="nonzero"/></clipPath><mask id="76d0e155d4"><g filter="url(#bbd389f9d2)"><rect x="-33.6" width="403.2" fill="#000000" y="-3.75" height="45" fill-opacity="0.498"/></g></mask><clipPath id="02830b6928"><path d="M 0.210938 0 L 331.789062 0 L 331.789062 37 L 0.210938 37 Z M 0.210938 0 " clip-rule="nonzero"/></clipPath><clipPath id="a2b637c137"><path d="M 18.535156 0 L 313.464844 0 C 323.585938 0 331.789062 8.203125 331.789062 18.324219 C 331.789062 28.445312 323.585938 36.648438 313.464844 36.648438 L 18.535156 36.648438 C 8.414062 36.648438 0.210938 28.445312 0.210938 18.324219 C 0.210938 8.203125 8.414062 0 18.535156 0 " clip-rule="nonzero"/></clipPath><clipPath id="028905b8ea"><rect x="0" width="332" y="0" height="38"/></clipPath><mask id="600307606e"><g filter="url(#bbd389f9d2)"><rect x="-33.6" width="403.2" fill="#000000" y="-3.75" height="45" fill-opacity="0.498"/></g></mask><clipPath id="23c6047049"><rect x="0" width="164" y="0" height="19"/></clipPath></defs><g clip-path="url(#505a8e4dab)"><g mask="url(#76d0e155d4)"><g transform="matrix(1, 0, 0, 1, 2, -0.000000000000001478)"><g clip-path="url(#028905b8ea)"><g clip-path="url(#02830b6928)"><g clip-path="url(#a2b637c137)"><path fill="#545454" d="M 0.210938 0 L 333.585938 0 L 333.585938 37.457031 L 0.210938 37.457031 Z M 0.210938 0 " fill-opacity="1" fill-rule="nonzero"/></g></g></g></g></g></g><g mask="url(#600307606e)"><g transform="matrix(1, 0, 0, 1, 86, 9)"><g clip-path="url(#23c6047049)"><g fill="#ffffff" fill-opacity="1"><g transform="translate(0.78346, 14.502932)"><g><path d="M 6.765625 -7.671875 C 6.722656 -8.085938 6.539062 -8.410156 6.21875 -8.640625 C 5.90625 -8.878906 5.476562 -9 4.9375 -9 C 4.375 -9 3.941406 -8.882812 3.640625 -8.65625 C 3.347656 -8.4375 3.203125 -8.148438 3.203125 -7.796875 C 3.191406 -7.410156 3.351562 -7.117188 3.6875 -6.921875 C 4.03125 -6.722656 4.4375 -6.570312 4.90625 -6.46875 L 5.875 -6.234375 C 6.5 -6.097656 7.050781 -5.894531 7.53125 -5.625 C 8.019531 -5.363281 8.398438 -5.019531 8.671875 -4.59375 C 8.953125 -4.175781 9.09375 -3.671875 9.09375 -3.078125 C 9.09375 -2.085938 8.722656 -1.300781 7.984375 -0.71875 C 7.253906 -0.132812 6.234375 0.15625 4.921875 0.15625 C 3.617188 0.15625 2.578125 -0.140625 1.796875 -0.734375 C 1.015625 -1.335938 0.613281 -2.21875 0.59375 -3.375 L 2.796875 -3.375 C 2.828125 -2.832031 3.035156 -2.425781 3.421875 -2.15625 C 3.816406 -1.882812 4.304688 -1.75 4.890625 -1.75 C 5.472656 -1.75 5.9375 -1.867188 6.28125 -2.109375 C 6.625 -2.359375 6.796875 -2.679688 6.796875 -3.078125 C 6.796875 -3.441406 6.640625 -3.722656 6.328125 -3.921875 C 6.015625 -4.117188 5.5625 -4.285156 4.96875 -4.421875 L 3.796875 -4.71875 C 2.890625 -4.9375 2.171875 -5.28125 1.640625 -5.75 C 1.117188 -6.226562 0.863281 -6.863281 0.875 -7.65625 C 0.863281 -8.300781 1.035156 -8.867188 1.390625 -9.359375 C 1.742188 -9.847656 2.226562 -10.226562 2.84375 -10.5 C 3.457031 -10.769531 4.160156 -10.90625 4.953125 -10.90625 C 5.742188 -10.90625 6.4375 -10.769531 7.03125 -10.5 C 7.632812 -10.226562 8.101562 -9.847656 8.4375 -9.359375 C 8.769531 -8.867188 8.941406 -8.304688 8.953125 -7.671875 Z M 6.765625 -7.671875 "/></g></g></g><g fill="#ffffff" fill-opacity="1"><g transform="translate(10.473716, 14.502932)"><g><path d="M 0.9375 0 L 0.9375 -10.765625 L 8.1875 -10.765625 L 8.1875 -8.890625 L 3.203125 -8.890625 L 3.203125 -6.328125 L 7.8125 -6.328125 L 7.8125 -4.453125 L 3.203125 -4.453125 L 3.203125 -1.875 L 8.203125 -1.875 L 8.203125 0 Z M 0.9375 0 "/></g></g></g><g fill="#ffffff" fill-opacity="1"><g transform="translate(19.538624, 14.502932)"><g><path d="M 0.9375 0 L 0.9375 -10.765625 L 8.1875 -10.765625 L 8.1875 -8.890625 L 3.203125 -8.890625 L 3.203125 -6.328125 L 7.8125 -6.328125 L 7.8125 -4.453125 L 3.203125 -4.453125 L 3.203125 -1.875 L 8.203125 -1.875 L 8.203125 0 Z M 0.9375 0 "/></g></g></g><g fill="#ffffff" fill-opacity="1"><g transform="translate(28.603532, 14.502932)"><g/></g></g><g fill="#ffffff" fill-opacity="1"><g transform="translate(32.035059, 14.502932)"><g><path d="M 0.9375 -10.765625 L 3.734375 -10.765625 L 6.703125 -3.53125 L 6.828125 -3.53125 L 9.796875 -10.765625 L 12.59375 -10.765625 L 12.59375 0 L 10.390625 0 L 10.390625 -7 L 10.296875 -7 L 7.515625 -0.046875 L 6.015625 -0.046875 L 3.234375 -7.03125 L 3.140625 -7.03125 L 3.140625 0 L 0.9375 0 Z M 0.9375 -10.765625 "/></g></g></g><g fill="#ffffff" fill-opacity="1"><g transform="translate(45.708612, 14.502932)"><g><path d="M 0.3125 -10.765625 L 2.859375 -10.765625 L 5.3125 -6.125 L 5.40625 -6.125 L 7.859375 -10.765625 L 10.421875 -10.765625 L 6.484375 -3.796875 L 6.484375 0 L 4.234375 0 L 4.234375 -3.796875 Z M 0.3125 -10.765625 "/></g></g></g><g fill="#ffffff" fill-opacity="1"><g transform="translate(56.428842, 14.502932)"><g/></g></g><g fill="#ffffff" fill-opacity="1"><g transform="translate(59.860369, 14.502932)"><g><path d="M 10.4375 -7 L 8.125 -7 C 8.039062 -7.582031 7.789062 -8.039062 7.375 -8.375 C 6.957031 -8.71875 6.4375 -8.890625 5.8125 -8.890625 C 4.976562 -8.890625 4.304688 -8.582031 3.796875 -7.96875 C 3.296875 -7.363281 3.046875 -6.5 3.046875 -5.375 C 3.046875 -4.226562 3.300781 -3.351562 3.8125 -2.75 C 4.320312 -2.15625 4.984375 -1.859375 5.796875 -1.859375 C 6.398438 -1.859375 6.910156 -2.015625 7.328125 -2.328125 C 7.753906 -2.648438 8.019531 -3.097656 8.125 -3.671875 L 10.4375 -3.671875 C 10.351562 -3.015625 10.113281 -2.394531 9.71875 -1.8125 C 9.332031 -1.226562 8.804688 -0.753906 8.140625 -0.390625 C 7.472656 -0.0351562 6.679688 0.140625 5.765625 0.140625 C 4.796875 0.140625 3.929688 -0.0703125 3.171875 -0.5 C 2.421875 -0.9375 1.828125 -1.566406 1.390625 -2.390625 C 0.960938 -3.210938 0.75 -4.207031 0.75 -5.375 C 0.75 -6.550781 0.96875 -7.550781 1.40625 -8.375 C 1.84375 -9.195312 2.441406 -9.820312 3.203125 -10.25 C 3.960938 -10.6875 4.816406 -10.90625 5.765625 -10.90625 C 6.585938 -10.90625 7.332031 -10.75 8 -10.4375 C 8.664062 -10.132812 9.210938 -9.691406 9.640625 -9.109375 C 10.066406 -8.523438 10.332031 -7.820312 10.4375 -7 Z M 10.4375 -7 "/></g></g></g><g fill="#ffffff" fill-opacity="1"><g transform="translate(70.990497, 14.502932)"><g><path d="M 0.9375 0 L 0.9375 -10.765625 L 3.203125 -10.765625 L 3.203125 -1.875 L 7.828125 -1.875 L 7.828125 0 Z M 0.9375 0 "/></g></g></g><g fill="#ffffff" fill-opacity="1"><g transform="translate(79.388013, 14.502932)"><g><path d="M 2.796875 0 L 0.359375 0 L 4.0625 -10.765625 L 7 -10.765625 L 10.703125 0 L 8.265625 0 L 7.46875 -2.453125 L 3.59375 -2.453125 Z M 4.171875 -4.234375 L 6.90625 -4.234375 L 5.578125 -8.296875 L 5.484375 -8.296875 Z M 4.171875 -4.234375 "/></g></g></g><g fill="#ffffff" fill-opacity="1"><g transform="translate(90.455075, 14.502932)"><g><path d="M 6.765625 -7.671875 C 6.722656 -8.085938 6.539062 -8.410156 6.21875 -8.640625 C 5.90625 -8.878906 5.476562 -9 4.9375 -9 C 4.375 -9 3.941406 -8.882812 3.640625 -8.65625 C 3.347656 -8.4375 3.203125 -8.148438 3.203125 -7.796875 C 3.191406 -7.410156 3.351562 -7.117188 3.6875 -6.921875 C 4.03125 -6.722656 4.4375 -6.570312 4.90625 -6.46875 L 5.875 -6.234375 C 6.5 -6.097656 7.050781 -5.894531 7.53125 -5.625 C 8.019531 -5.363281 8.398438 -5.019531 8.671875 -4.59375 C 8.953125 -4.175781 9.09375 -3.671875 9.09375 -3.078125 C 9.09375 -2.085938 8.722656 -1.300781 7.984375 -0.71875 C 7.253906 -0.132812 6.234375 0.15625 4.921875 0.15625 C 3.617188 0.15625 2.578125 -0.140625 1.796875 -0.734375 C 1.015625 -1.335938 0.613281 -2.21875 0.59375 -3.375 L 2.796875 -3.375 C 2.828125 -2.832031 3.035156 -2.425781 3.421875 -2.15625 C 3.816406 -1.882812 4.304688 -1.75 4.890625 -1.75 C 5.472656 -1.75 5.9375 -1.867188 6.28125 -2.109375 C 6.625 -2.359375 6.796875 -2.679688 6.796875 -3.078125 C 6.796875 -3.441406 6.640625 -3.722656 6.328125 -3.921875 C 6.015625 -4.117188 5.5625 -4.285156 4.96875 -4.421875 L 3.796875 -4.71875 C 2.890625 -4.9375 2.171875 -5.28125 1.640625 -5.75 C 1.117188 -6.226562 0.863281 -6.863281 0.875 -7.65625 C 0.863281 -8.300781 1.035156 -8.867188 1.390625 -9.359375 C 1.742188 -9.847656 2.226562 -10.226562 2.84375 -10.5 C 3.457031 -10.769531 4.160156 -10.90625 4.953125 -10.90625 C 5.742188 -10.90625 6.4375 -10.769531 7.03125 -10.5 C 7.632812 -10.226562 8.101562 -9.847656 8.4375 -9.359375 C 8.769531 -8.867188 8.941406 -8.304688 8.953125 -7.671875 Z M 6.765625 -7.671875 "/></g></g></g><g fill="#ffffff" fill-opacity="1"><g transform="translate(100.145331, 14.502932)"><g><path d="M 6.765625 -7.671875 C 6.722656 -8.085938 6.539062 -8.410156 6.21875 -8.640625 C 5.90625 -8.878906 5.476562 -9 4.9375 -9 C 4.375 -9 3.941406 -8.882812 3.640625 -8.65625 C 3.347656 -8.4375 3.203125 -8.148438 3.203125 -7.796875 C 3.191406 -7.410156 3.351562 -7.117188 3.6875 -6.921875 C 4.03125 -6.722656 4.4375 -6.570312 4.90625 -6.46875 L 5.875 -6.234375 C 6.5 -6.097656 7.050781 -5.894531 7.53125 -5.625 C 8.019531 -5.363281 8.398438 -5.019531 8.671875 -4.59375 C 8.953125 -4.175781 9.09375 -3.671875 9.09375 -3.078125 C 9.09375 -2.085938 8.722656 -1.300781 7.984375 -0.71875 C 7.253906 -0.132812 6.234375 0.15625 4.921875 0.15625 C 3.617188 0.15625 2.578125 -0.140625 1.796875 -0.734375 C 1.015625 -1.335938 0.613281 -2.21875 0.59375 -3.375 L 2.796875 -3.375 C 2.828125 -2.832031 3.035156 -2.425781 3.421875 -2.15625 C 3.816406 -1.882812 4.304688 -1.75 4.890625 -1.75 C 5.472656 -1.75 5.9375 -1.867188 6.28125 -2.109375 C 6.625 -2.359375 6.796875 -2.679688 6.796875 -3.078125 C 6.796875 -3.441406 6.640625 -3.722656 6.328125 -3.921875 C 6.015625 -4.117188 5.5625 -4.285156 4.96875 -4.421875 L 3.796875 -4.71875 C 2.890625 -4.9375 2.171875 -5.28125 1.640625 -5.75 C 1.117188 -6.226562 0.863281 -6.863281 0.875 -7.65625 C 0.863281 -8.300781 1.035156 -8.867188 1.390625 -9.359375 C 1.742188 -9.847656 2.226562 -10.226562 2.84375 -10.5 C 3.457031 -10.769531 4.160156 -10.90625 4.953125 -10.90625 C 5.742188 -10.90625 6.4375 -10.769531 7.03125 -10.5 C 7.632812 -10.226562 8.101562 -9.847656 8.4375 -9.359375 C 8.769531 -8.867188 8.941406 -8.304688 8.953125 -7.671875 Z M 6.765625 -7.671875 "/></g></g></g><g fill="#ffffff" fill-opacity="1"><g transform="translate(109.835586, 14.502932)"><g><path d="M 0.9375 -10.765625 L 3.734375 -10.765625 L 6.703125 -3.53125 L 6.828125 -3.53125 L 9.796875 -10.765625 L 12.59375 -10.765625 L 12.59375 0 L 10.390625 0 L 10.390625 -7 L 10.296875 -7 L 7.515625 -0.046875 L 6.015625 -0.046875 L 3.234375 -7.03125 L 3.140625 -7.03125 L 3.140625 0 L 0.9375 0 Z M 0.9375 -10.765625 "/></g></g></g><g fill="#ffffff" fill-opacity="1"><g transform="translate(123.50914, 14.502932)"><g><path d="M 2.796875 0 L 0.359375 0 L 4.0625 -10.765625 L 7 -10.765625 L 10.703125 0 L 8.265625 0 L 7.46875 -2.453125 L 3.59375 -2.453125 Z M 4.171875 -4.234375 L 6.90625 -4.234375 L 5.578125 -8.296875 L 5.484375 -8.296875 Z M 4.171875 -4.234375 "/></g></g></g><g fill="#ffffff" fill-opacity="1"><g transform="translate(134.576202, 14.502932)"><g><path d="M 0.53125 -8.890625 L 0.53125 -10.765625 L 9.359375 -10.765625 L 9.359375 -8.890625 L 6.0625 -8.890625 L 6.0625 0 L 3.8125 0 L 3.8125 -8.890625 Z M 0.53125 -8.890625 "/></g></g></g><g fill="#ffffff" fill-opacity="1"><g transform="translate(144.466146, 14.502932)"><g><path d="M 0.9375 0 L 0.9375 -10.765625 L 8.1875 -10.765625 L 8.1875 -8.890625 L 3.203125 -8.890625 L 3.203125 -6.328125 L 7.8125 -6.328125 L 7.8125 -4.453125 L 3.203125 -4.453125 L 3.203125 -1.875 L 8.203125 -1.875 L 8.203125 0 Z M 0.9375 0 "/></g></g></g><g fill="#ffffff" fill-opacity="1"><g transform="translate(153.531053, 14.502932)"><g><path d="M 6.765625 -7.671875 C 6.722656 -8.085938 6.539062 -8.410156 6.21875 -8.640625 C 5.90625 -8.878906 5.476562 -9 4.9375 -9 C 4.375 -9 3.941406 -8.882812 3.640625 -8.65625 C 3.347656 -8.4375 3.203125 -8.148438 3.203125 -7.796875 C 3.191406 -7.410156 3.351562 -7.117188 3.6875 -6.921875 C 4.03125 -6.722656 4.4375 -6.570312 4.90625 -6.46875 L 5.875 -6.234375 C 6.5 -6.097656 7.050781 -5.894531 7.53125 -5.625 C 8.019531 -5.363281 8.398438 -5.019531 8.671875 -4.59375 C 8.953125 -4.175781 9.09375 -3.671875 9.09375 -3.078125 C 9.09375 -2.085938 8.722656 -1.300781 7.984375 -0.71875 C 7.253906 -0.132812 6.234375 0.15625 4.921875 0.15625 C 3.617188 0.15625 2.578125 -0.140625 1.796875 -0.734375 C 1.015625 -1.335938 0.613281 -2.21875 0.59375 -3.375 L 2.796875 -3.375 C 2.828125 -2.832031 3.035156 -2.425781 3.421875 -2.15625 C 3.816406 -1.882812 4.304688 -1.75 4.890625 -1.75 C 5.472656 -1.75 5.9375 -1.867188 6.28125 -2.109375 C 6.625 -2.359375 6.796875 -2.679688 6.796875 -3.078125 C 6.796875 -3.441406 6.640625 -3.722656 6.328125 -3.921875 C 6.015625 -4.117188 5.5625 -4.285156 4.96875 -4.421875 L 3.796875 -4.71875 C 2.890625 -4.9375 2.171875 -5.28125 1.640625 -5.75 C 1.117188 -6.226562 0.863281 -6.863281 0.875 -7.65625 C 0.863281 -8.300781 1.035156 -8.867188 1.390625 -9.359375 C 1.742188 -9.847656 2.226562 -10.226562 2.84375 -10.5 C 3.457031 -10.769531 4.160156 -10.90625 4.953125 -10.90625 C 5.742188 -10.90625 6.4375 -10.769531 7.03125 -10.5 C 7.632812 -10.226562 8.101562 -9.847656 8.4375 -9.359375 C 8.769531 -8.867188 8.941406 -8.304688 8.953125 -7.671875 Z M 6.765625 -7.671875 "/></g></g></g></g></g></g></svg>