<svg xmlns="http://www.w3.org/2000/svg" xmlns:xlink="http://www.w3.org/1999/xlink" width="60" zoomAndPan="magnify" viewBox="0 0 45 44.999999" height="60" preserveAspectRatio="xMidYMid meet" version="1.0"><defs><filter x="0%" y="0%" width="100%" height="100%" id="e169bd436d"><feColorMatrix values="0 0 0 0 1 0 0 0 0 1 0 0 0 0 1 0 0 0 1 0" color-interpolation-filters="sRGB"/></filter><mask id="a32c6fdee9"><g filter="url(#e169bd436d)"><rect x="-4.5" width="54" fill="#000000" y="-4.5" height="53.999999" fill-opacity="0.498"/></g></mask><clipPath id="efb077c01a"><path d="M 0 0 L 44.753906 0 L 44.753906 44.753906 L 0 44.753906 Z M 0 0 " clip-rule="nonzero"/></clipPath><clipPath id="2359890169"><path d="M 22.378906 0 C 10.019531 0 0 10.019531 0 22.378906 C 0 34.734375 10.019531 44.753906 22.378906 44.753906 C 34.734375 44.753906 44.753906 34.734375 44.753906 22.378906 C 44.753906 10.019531 34.734375 0 22.378906 0 " clip-rule="nonzero"/></clipPath><clipPath id="895c862c01"><rect x="0" width="45" y="0" height="45"/></clipPath></defs><g mask="url(#a32c6fdee9)"><g transform="matrix(1, 0, 0, 1, 0, 0)"><g clip-path="url(#895c862c01)"><g clip-path="url(#efb077c01a)"><g clip-path="url(#2359890169)"><path fill="#eef0f2" d="M 0 0 L 44.753906 0 L 44.753906 44.753906 L 0 44.753906 Z M 0 0 " fill-opacity="1" fill-rule="nonzero"/></g></g></g></g></g></svg>