<svg xmlns="http://www.w3.org/2000/svg" xmlns:xlink="http://www.w3.org/1999/xlink" width="40" zoomAndPan="magnify" viewBox="0 0 30 30.000001" height="40" preserveAspectRatio="xMidYMid meet" version="1.0"><defs><filter x="0%" y="0%" width="100%" height="100%" id="4845e15304"><feColorMatrix values="0 0 0 0 1 0 0 0 0 1 0 0 0 0 1 0 0 0 1 0" color-interpolation-filters="sRGB"/></filter><clipPath id="c9b0bf65dd"><path d="M 0.484375 0 L 29.515625 0 L 29.515625 29.03125 L 0.484375 29.03125 Z M 0.484375 0 " clip-rule="nonzero"/></clipPath><mask id="89ae4d329b"><g filter="url(#4845e15304)"><rect x="-3" width="36" fill="#000000" y="-3" height="36.000001" fill-opacity="1"/></g></mask><clipPath id="426d708d99"><path d="M 0.484375 0 L 29.402344 0 L 29.402344 28.917969 L 0.484375 28.917969 Z M 0.484375 0 " clip-rule="nonzero"/></clipPath><clipPath id="019fe7be8f"><path d="M 14.945312 0 C 6.957031 0 0.484375 6.472656 0.484375 14.460938 C 0.484375 22.445312 6.957031 28.917969 14.945312 28.917969 C 22.929688 28.917969 29.402344 22.445312 29.402344 14.460938 C 29.402344 6.472656 22.929688 0 14.945312 0 " clip-rule="nonzero"/></clipPath><clipPath id="acf221a3c7"><rect x="0" width="30" y="0" height="30"/></clipPath></defs><g clip-path="url(#c9b0bf65dd)"><g mask="url(#89ae4d329b)"><g transform="matrix(1, 0, 0, 1, 0, 0.000000000000005692)"><g clip-path="url(#acf221a3c7)"><g clip-path="url(#426d708d99)"><g clip-path="url(#019fe7be8f)"><path fill="#141414" d="M 0.484375 0 L 29.402344 0 L 29.402344 28.917969 L 0.484375 28.917969 Z M 0.484375 0 " fill-opacity="1" fill-rule="nonzero"/></g></g></g></g></g></g></svg>