<svg xmlns="http://www.w3.org/2000/svg" xmlns:xlink="http://www.w3.org/1999/xlink" width="343" zoomAndPan="magnify" viewBox="0 0 257.25 50.249999" height="67" preserveAspectRatio="xMidYMid meet" version="1.0"><defs><filter x="0%" y="0%" width="100%" height="100%" id="080f158a3c"><feColorMatrix values="0 0 0 0 1 0 0 0 0 1 0 0 0 0 1 0 0 0 1 0" color-interpolation-filters="sRGB"/></filter><clipPath id="1574397b2a"><path d="M 1.523438 0 L 254.988281 0 L 254.988281 49.511719 L 1.523438 49.511719 Z M 1.523438 0 " clip-rule="nonzero"/></clipPath><mask id="df4810260a"><g filter="url(#080f158a3c)"><rect x="-25.725" width="308.7" fill="#000000" y="-5.025" height="60.299998" fill-opacity="0.498"/></g></mask><clipPath id="a940c044f2"><path d="M 0.523438 0 L 253.988281 0 L 253.988281 49.511719 L 0.523438 49.511719 Z M 0.523438 0 " clip-rule="nonzero"/></clipPath><clipPath id="c9c0e756f3"><path d="M 25.070312 0 L 229.441406 0 C 235.949219 0 242.195312 2.585938 246.796875 7.191406 C 251.402344 11.792969 253.988281 18.039062 253.988281 24.550781 C 253.988281 31.058594 251.402344 37.304688 246.796875 41.90625 C 242.195312 46.511719 235.949219 49.097656 229.441406 49.097656 L 25.070312 49.097656 C 18.558594 49.097656 12.316406 46.511719 7.710938 41.90625 C 3.109375 37.304688 0.523438 31.058594 0.523438 24.550781 C 0.523438 18.039062 3.109375 11.792969 7.710938 7.191406 C 12.316406 2.585938 18.558594 0 25.070312 0 " clip-rule="nonzero"/></clipPath><clipPath id="b6257e1b4c"><rect x="0" width="254" y="0" height="50"/></clipPath></defs><g clip-path="url(#1574397b2a)"><g mask="url(#df4810260a)"><g transform="matrix(1, 0, 0, 1, 1, 0)"><g clip-path="url(#b6257e1b4c)"><g clip-path="url(#a940c044f2)"><g clip-path="url(#c9c0e756f3)"><path fill="#eef0f2" d="M 0.523438 0 L 254.761719 0 L 254.761719 49.527344 L 0.523438 49.527344 Z M 0.523438 0 " fill-opacity="1" fill-rule="nonzero"/></g></g></g></g></g></g></svg>