<svg xmlns="http://www.w3.org/2000/svg" xmlns:xlink="http://www.w3.org/1999/xlink" width="500" zoomAndPan="magnify" viewBox="0 0 375 374.999991" height="500" preserveAspectRatio="xMidYMid meet" version="1.0"><defs><filter x="0%" y="0%" width="100%" height="100%" id="56041c8b44"><feColorMatrix values="0 0 0 0 1 0 0 0 0 1 0 0 0 0 1 0 0 0 1 0" color-interpolation-filters="sRGB"/></filter><mask id="ca0fa1dfb2"><g filter="url(#56041c8b44)"><rect x="-37.5" width="450" fill="#000000" y="-37.499999" height="449.999989" fill-opacity="0.749"/></g></mask><clipPath id="1b097a3fde"><path d="M 0 0 L 375 0 L 375 375 L 0 375 Z M 0 0 " clip-rule="nonzero"/></clipPath><clipPath id="6c2a00a4a9"><path d="M 187.5 0 C 83.945312 0 0 83.945312 0 187.5 C 0 291.054688 83.945312 375 187.5 375 C 291.054688 375 375 291.054688 375 187.5 C 375 83.945312 291.054688 0 187.5 0 " clip-rule="nonzero"/></clipPath><clipPath id="6ec347d862"><rect x="0" width="375" y="0" height="375"/></clipPath></defs><g mask="url(#ca0fa1dfb2)"><g transform="matrix(1, 0, 0, 1, 0, 0)"><g clip-path="url(#6ec347d862)"><g clip-path="url(#1b097a3fde)"><g clip-path="url(#6c2a00a4a9)"><rect x="-82.5" width="540" fill="#141414" height="539.999987" y="-82.499998" fill-opacity="1"/></g></g></g></g></g></svg>