<svg xmlns="http://www.w3.org/2000/svg" xmlns:xlink="http://www.w3.org/1999/xlink" width="100" zoomAndPan="magnify" viewBox="0 0 75 44.999999" height="60" preserveAspectRatio="xMidYMid meet" version="1.0"><defs><filter x="0%" y="0%" width="100%" height="100%" id="7bd5376a86"><feColorMatrix values="0 0 0 0 1 0 0 0 0 1 0 0 0 0 1 0 0 0 1 0" color-interpolation-filters="sRGB"/></filter><mask id="b36d7e4a3f"><g filter="url(#7bd5376a86)"><rect x="-7.5" width="90" fill="#000000" y="-4.5" height="53.999999" fill-opacity="0.498"/></g></mask><clipPath id="75d254725b"><path d="M 0 0 L 73 0 L 73 43 L 0 43 Z M 0 0 " clip-rule="nonzero"/></clipPath><clipPath id="21d6e213e0"><path d="M 22.5 0 L 52.5 0 C 64.925781 0 75 10.074219 75 22.5 C 75 34.925781 64.925781 45 52.5 45 L 22.5 45 C 10.074219 45 0 34.925781 0 22.5 C 0 10.074219 10.074219 0 22.5 0 " clip-rule="nonzero"/></clipPath><clipPath id="e8d1a606cb"><rect x="0" width="75" y="0" height="45"/></clipPath></defs><g mask="url(#b36d7e4a3f)"><g transform="matrix(1, 0, 0, 1, 0, 0)"><g clip-path="url(#e8d1a606cb)"><g clip-path="url(#75d254725b)"><g clip-path="url(#21d6e213e0)"><path fill="#eef0f2" d="M 0 0 L 72.980469 0 L 72.980469 42.929688 L 0 42.929688 Z M 0 0 " fill-opacity="1" fill-rule="nonzero"/></g></g></g></g></g></svg>