<svg xmlns="http://www.w3.org/2000/svg" xmlns:xlink="http://www.w3.org/1999/xlink" width="60" zoomAndPan="magnify" viewBox="0 0 45 44.999999" height="60" preserveAspectRatio="xMidYMid meet" version="1.0"><defs><filter x="0%" y="0%" width="100%" height="100%" id="322d0f740a"><feColorMatrix values="0 0 0 0 1 0 0 0 0 1 0 0 0 0 1 0 0 0 1 0" color-interpolation-filters="sRGB"/></filter><mask id="9bf94f2cea"><g filter="url(#322d0f740a)"><rect x="-4.5" width="54" fill="#000000" y="-4.5" height="53.999999" fill-opacity="0.498"/></g></mask><clipPath id="1cfd5a8e42"><path d="M 0 0 L 44.753906 0 L 44.753906 44.753906 L 0 44.753906 Z M 0 0 " clip-rule="nonzero"/></clipPath><clipPath id="24e396182a"><path d="M 22.378906 0 C 10.019531 0 0 10.019531 0 22.378906 C 0 34.734375 10.019531 44.753906 22.378906 44.753906 C 34.734375 44.753906 44.753906 34.734375 44.753906 22.378906 C 44.753906 10.019531 34.734375 0 22.378906 0 " clip-rule="nonzero"/></clipPath><clipPath id="f64c3016eb"><rect x="0" width="45" y="0" height="45"/></clipPath><clipPath id="67565ba964"><path d="M 7.492188 19.257812 L 38.464844 19.257812 L 38.464844 25.496094 L 7.492188 25.496094 Z M 7.492188 19.257812 " clip-rule="nonzero"/></clipPath><clipPath id="9e947a72e4"><path d="M 19.925781 6.832031 L 26.023438 6.832031 L 26.023438 37.925781 L 19.925781 37.925781 Z M 19.925781 6.832031 " clip-rule="nonzero"/></clipPath></defs><g mask="url(#9bf94f2cea)"><g transform="matrix(1, 0, 0, 1, 0, 0)"><g clip-path="url(#f64c3016eb)"><g clip-path="url(#1cfd5a8e42)"><g clip-path="url(#24e396182a)"><path fill="#eef0f2" d="M 0 0 L 44.753906 0 L 44.753906 44.753906 L 0 44.753906 Z M 0 0 " fill-opacity="1" fill-rule="nonzero"/></g></g></g></g></g><g clip-path="url(#67565ba964)"><path fill="#ecc643" d="M 7.492188 19.257812 L 38.09375 19.257812 L 38.09375 25.378906 L 7.492188 25.378906 Z M 7.492188 19.257812 " fill-opacity="1" fill-rule="nonzero"/></g><g clip-path="url(#9e947a72e4)"><path fill="#ecc643" d="M 26.023438 6.832031 L 26.023438 37.4375 L 19.902344 37.4375 L 19.902344 6.832031 Z M 26.023438 6.832031 " fill-opacity="1" fill-rule="nonzero"/></g></svg>