<svg xmlns="http://www.w3.org/2000/svg" xmlns:xlink="http://www.w3.org/1999/xlink" width="840" zoomAndPan="magnify" viewBox="0 0 630 43.499998" height="58" preserveAspectRatio="xMidYMid meet" version="1.0"><defs><filter x="0%" y="0%" width="100%" height="100%" id="a2cd2a04b9"><feColorMatrix values="0 0 0 0 1 0 0 0 0 1 0 0 0 0 1 0 0 0 1 0" color-interpolation-filters="sRGB"/></filter><clipPath id="9d098e8d4c"><path d="M 3.578125 0 L 319 0 L 319 43.003906 L 3.578125 43.003906 Z M 3.578125 0 " clip-rule="nonzero"/></clipPath><mask id="16ce15792e"><g filter="url(#a2cd2a04b9)"><rect x="-63" width="756" fill="#000000" y="-4.35" height="52.199998" fill-opacity="0.749"/></g></mask><clipPath id="1f77514543"><path d="M 0.578125 0 L 310 0 L 310 43 L 0.578125 43 Z M 0.578125 0 " clip-rule="nonzero"/></clipPath><clipPath id="4508ca558b"><path d="M 21.664062 0 L 290.917969 0 C 302.5625 0 312 9.4375 312 21.082031 C 312 32.726562 302.5625 42.167969 290.917969 42.167969 L 21.664062 42.167969 C 10.019531 42.167969 0.578125 32.726562 0.578125 21.082031 C 0.578125 9.4375 10.019531 0 21.664062 0 " clip-rule="nonzero"/></clipPath><clipPath id="ba4a12f423"><rect x="0" width="316" y="0" height="44"/></clipPath></defs><g clip-path="url(#9d098e8d4c)"><g mask="url(#16ce15792e)"><g transform="matrix(1, 0, 0, 1, 3, 0)"><g clip-path="url(#ba4a12f423)"><g clip-path="url(#1f77514543)"><g clip-path="url(#4508ca558b)"><path fill="#141414" d="M 0.578125 0 L 309.816406 0 L 309.816406 43.402344 L 0.578125 43.402344 Z M 0.578125 0 " fill-opacity="1" fill-rule="nonzero"/></g></g></g></g></g></g></svg>