<svg xmlns="http://www.w3.org/2000/svg" xmlns:xlink="http://www.w3.org/1999/xlink" width="432" zoomAndPan="magnify" viewBox="0 0 324 404.99999" height="540" preserveAspectRatio="xMidYMid meet" version="1.0"><defs><filter x="0%" y="0%" width="100%" height="100%" id="74884fcc29"><feColorMatrix values="0 0 0 0 1 0 0 0 0 1 0 0 0 0 1 0 0 0 1 0" color-interpolation-filters="sRGB"/></filter><clipPath id="2b082db4a4"><path d="M 38.25 0 L 285.578125 0 C 295.722656 0 305.453125 4.03125 312.625 11.203125 C 319.800781 18.375 323.828125 28.105469 323.828125 38.25 L 323.828125 366.75 C 323.828125 376.894531 319.800781 386.625 312.625 393.796875 C 305.453125 400.96875 295.722656 405 285.578125 405 L 38.25 405 C 28.105469 405 18.375 400.96875 11.203125 393.796875 C 4.03125 386.625 0 376.894531 0 366.75 L 0 38.25 C 0 28.105469 4.03125 18.375 11.203125 11.203125 C 18.375 4.03125 28.105469 0 38.25 0 " clip-rule="nonzero"/></clipPath><mask id="d37dd8cb46"><g filter="url(#74884fcc29)"><rect x="-32.4" width="388.8" fill="#000000" y="-40.499999" height="485.999988" fill-opacity="0.498"/></g></mask><clipPath id="410074932b"><path d="M 0.753906 0.25 L 270 0.25 L 270 35.375 L 0.753906 35.375 Z M 0.753906 0.25 " clip-rule="nonzero"/></clipPath><clipPath id="6ad05bc6e9"><path d="M 18.164062 0.25 L 251.664062 0.25 C 256.28125 0.25 260.710938 2.082031 263.976562 5.347656 C 267.242188 8.613281 269.074219 13.042969 269.074219 17.660156 C 269.074219 22.277344 267.242188 26.703125 263.976562 29.96875 C 260.710938 33.234375 256.28125 35.070312 251.664062 35.070312 L 18.164062 35.070312 C 13.546875 35.070312 9.117188 33.234375 5.851562 29.96875 C 2.585938 26.703125 0.753906 22.277344 0.753906 17.660156 C 0.753906 13.042969 2.585938 8.613281 5.851562 5.347656 C 9.117188 2.082031 13.546875 0.25 18.164062 0.25 " clip-rule="nonzero"/></clipPath><clipPath id="f69ace7816"><rect x="0" width="271" y="0" height="36"/></clipPath><mask id="4813aa0d12"><g filter="url(#74884fcc29)"><rect x="-32.4" width="388.8" fill="#000000" y="-40.499999" height="485.999988" fill-opacity="0.498"/></g></mask><clipPath id="841cb347f3"><path d="M 0.753906 0.75 L 270 0.75 L 270 35.875 L 0.753906 35.875 Z M 0.753906 0.75 " clip-rule="nonzero"/></clipPath><clipPath id="b7a586d763"><path d="M 18.164062 0.75 L 251.664062 0.75 C 256.28125 0.75 260.710938 2.582031 263.976562 5.847656 C 267.242188 9.113281 269.074219 13.542969 269.074219 18.160156 C 269.074219 22.777344 267.242188 27.203125 263.976562 30.46875 C 260.710938 33.734375 256.28125 35.570312 251.664062 35.570312 L 18.164062 35.570312 C 13.546875 35.570312 9.117188 33.734375 5.851562 30.46875 C 2.585938 27.203125 0.753906 22.777344 0.753906 18.160156 C 0.753906 13.542969 2.585938 9.113281 5.851562 5.847656 C 9.117188 2.582031 13.546875 0.75 18.164062 0.75 " clip-rule="nonzero"/></clipPath><clipPath id="b8b689717a"><rect x="0" width="271" y="0" height="36"/></clipPath><mask id="cf8e88618a"><g filter="url(#74884fcc29)"><rect x="-32.4" width="388.8" fill="#000000" y="-40.499999" height="485.999988" fill-opacity="0.498"/></g></mask><clipPath id="8f8f19a3eb"><path d="M 0.753906 1 L 270 1 L 270 36 L 0.753906 36 Z M 0.753906 1 " clip-rule="nonzero"/></clipPath><clipPath id="cf14b5839c"><path d="M 18.164062 1 L 251.664062 1 C 256.28125 1 260.710938 2.832031 263.976562 6.097656 C 267.242188 9.363281 269.074219 13.792969 269.074219 18.410156 C 269.074219 23.027344 267.242188 27.453125 263.976562 30.71875 C 260.710938 33.984375 256.28125 35.820312 251.664062 35.820312 L 18.164062 35.820312 C 13.546875 35.820312 9.117188 33.984375 5.851562 30.71875 C 2.585938 27.453125 0.753906 23.027344 0.753906 18.410156 C 0.753906 13.792969 2.585938 9.363281 5.851562 6.097656 C 9.117188 2.832031 13.546875 1 18.164062 1 " clip-rule="nonzero"/></clipPath><clipPath id="6b7cde75e9"><rect x="0" width="271" y="0" height="37"/></clipPath><mask id="fbba25b821"><g filter="url(#74884fcc29)"><rect x="-32.4" width="388.8" fill="#000000" y="-40.499999" height="485.999988" fill-opacity="0.498"/></g></mask><clipPath id="e7e1344fd3"><path d="M 0.753906 0.625 L 270 0.625 L 270 35.75 L 0.753906 35.75 Z M 0.753906 0.625 " clip-rule="nonzero"/></clipPath><clipPath id="4e2c2947bf"><path d="M 18.164062 0.625 L 251.664062 0.625 C 256.28125 0.625 260.710938 2.457031 263.976562 5.722656 C 267.242188 8.988281 269.074219 13.417969 269.074219 18.035156 C 269.074219 22.652344 267.242188 27.078125 263.976562 30.34375 C 260.710938 33.609375 256.28125 35.445312 251.664062 35.445312 L 18.164062 35.445312 C 13.546875 35.445312 9.117188 33.609375 5.851562 30.34375 C 2.585938 27.078125 0.753906 22.652344 0.753906 18.035156 C 0.753906 13.417969 2.585938 8.988281 5.851562 5.722656 C 9.117188 2.457031 13.546875 0.625 18.164062 0.625 " clip-rule="nonzero"/></clipPath><clipPath id="f71d5f8bdb"><rect x="0" width="271" y="0" height="36"/></clipPath><mask id="1635871485"><g filter="url(#74884fcc29)"><rect x="-32.4" width="388.8" fill="#000000" y="-40.499999" height="485.999988" fill-opacity="0.498"/></g></mask><clipPath id="50abdc6e61"><path d="M 0.753906 0.375 L 270 0.375 L 270 35.5 L 0.753906 35.5 Z M 0.753906 0.375 " clip-rule="nonzero"/></clipPath><clipPath id="098e7b0f41"><path d="M 18.164062 0.375 L 251.664062 0.375 C 256.28125 0.375 260.710938 2.207031 263.976562 5.472656 C 267.242188 8.738281 269.074219 13.167969 269.074219 17.785156 C 269.074219 22.402344 267.242188 26.832031 263.976562 30.09375 C 260.710938 33.359375 256.28125 35.195312 251.664062 35.195312 L 18.164062 35.195312 C 13.546875 35.195312 9.117188 33.359375 5.851562 30.09375 C 2.585938 26.832031 0.753906 22.402344 0.753906 17.785156 C 0.753906 13.167969 2.585938 8.738281 5.851562 5.472656 C 9.117188 2.207031 13.546875 0.375 18.164062 0.375 " clip-rule="nonzero"/></clipPath><clipPath id="c3e4926f2c"><rect x="0" width="271" y="0" height="36"/></clipPath></defs><g clip-path="url(#2b082db4a4)"><rect x="-32.4" width="388.8" fill="#ecc643" y="-40.499999" height="485.999988" fill-opacity="1"/></g><g mask="url(#d37dd8cb46)"><g transform="matrix(1, 0, 0, 1, 27, 30)"><g clip-path="url(#f69ace7816)"><g clip-path="url(#410074932b)"><g clip-path="url(#6ad05bc6e9)"><path fill="#eef0f2" d="M 0.753906 0.25 L 270.042969 0.25 L 270.042969 35.375 L 0.753906 35.375 Z M 0.753906 0.25 " fill-opacity="1" fill-rule="nonzero"/></g></g></g></g></g><g mask="url(#4813aa0d12)"><g transform="matrix(1, 0, 0, 1, 27, 339)"><g clip-path="url(#b8b689717a)"><g clip-path="url(#841cb347f3)"><g clip-path="url(#b7a586d763)"><path fill="#eef0f2" d="M 0.753906 0.75 L 270.042969 0.75 L 270.042969 35.875 L 0.753906 35.875 Z M 0.753906 0.75 " fill-opacity="1" fill-rule="nonzero"/></g></g></g></g></g><g mask="url(#cf8e88618a)"><g transform="matrix(1, 0, 0, 1, 27, 184)"><g clip-path="url(#6b7cde75e9)"><g clip-path="url(#8f8f19a3eb)"><g clip-path="url(#cf14b5839c)"><path fill="#eef0f2" d="M 0.753906 1 L 270.042969 1 L 270.042969 36.125 L 0.753906 36.125 Z M 0.753906 1 " fill-opacity="1" fill-rule="nonzero"/></g></g></g></g></g><g mask="url(#fbba25b821)"><g transform="matrix(1, 0, 0, 1, 27, 107)"><g clip-path="url(#f71d5f8bdb)"><g clip-path="url(#e7e1344fd3)"><g clip-path="url(#4e2c2947bf)"><path fill="#eef0f2" d="M 0.753906 0.625 L 270.042969 0.625 L 270.042969 35.75 L 0.753906 35.75 Z M 0.753906 0.625 " fill-opacity="1" fill-rule="nonzero"/></g></g></g></g></g><g mask="url(#1635871485)"><g transform="matrix(1, 0, 0, 1, 27, 262)"><g clip-path="url(#c3e4926f2c)"><g clip-path="url(#50abdc6e61)"><g clip-path="url(#098e7b0f41)"><path fill="#eef0f2" d="M 0.753906 0.375 L 270.042969 0.375 L 270.042969 35.5 L 0.753906 35.5 Z M 0.753906 0.375 " fill-opacity="1" fill-rule="nonzero"/></g></g></g></g></g></svg>