<svg xmlns="http://www.w3.org/2000/svg" xmlns:xlink="http://www.w3.org/1999/xlink" width="920" zoomAndPan="magnify" viewBox="0 0 690 30.000001" height="40" preserveAspectRatio="xMidYMid meet" version="1.0"><defs><filter x="0%" y="0%" width="100%" height="100%" id="49023b9d77"><feColorMatrix values="0 0 0 0 1 0 0 0 0 1 0 0 0 0 1 0 0 0 1 0" color-interpolation-filters="sRGB"/></filter><clipPath id="6dc5fa4fce"><path d="M 11.128906 0 L 678.871094 0 L 678.871094 29.03125 L 11.128906 29.03125 Z M 11.128906 0 " clip-rule="nonzero"/></clipPath><mask id="68b3e217b9"><g filter="url(#49023b9d77)"><rect x="-69" width="828" fill="#000000" y="-3" height="36.000001" fill-opacity="1"/></g></mask><clipPath id="32e676affb"><path d="M 0.128906 0 L 667.871094 0 L 667.871094 29.03125 L 0.128906 29.03125 Z M 0.128906 0 " clip-rule="nonzero"/></clipPath><clipPath id="459605313a"><path d="M 14.679688 0 L 653.320312 0 C 661.355469 0 667.871094 6.515625 667.871094 14.550781 C 667.871094 22.589844 661.355469 29.105469 653.320312 29.105469 L 14.679688 29.105469 C 6.644531 29.105469 0.128906 22.589844 0.128906 14.550781 C 0.128906 6.515625 6.644531 0 14.679688 0 " clip-rule="nonzero"/></clipPath><clipPath id="27414221d5"><rect x="0" width="668" y="0" height="30"/></clipPath></defs><g clip-path="url(#6dc5fa4fce)"><g mask="url(#68b3e217b9)"><g transform="matrix(1, 0, 0, 1, 11, 0.000000000000005692)"><g clip-path="url(#27414221d5)"><g clip-path="url(#32e676affb)"><g clip-path="url(#459605313a)"><path fill="#141414" d="M 0.128906 0 L 669.765625 0 L 669.765625 29.371094 L 0.128906 29.371094 Z M 0.128906 0 " fill-opacity="1" fill-rule="nonzero"/></g></g></g></g></g></g></svg>